<?xml version="1.0" encoding="UTF-8" standalone="no"?>
<!DOCTYPE svg PUBLIC "-//W3C//DTD SVG 1.1//EN" "http://www.w3.org/Graphics/SVG/1.1/DTD/svg11.dtd">
<svg xmlns="http://www.w3.org/2000/svg" version="1.1" viewBox="0.00 0.00 500.00 500.00">
<path fill="#949e95" d="
  M 437.75 250.68
  A 187.53 187.53 0.0 0 1 250.22 438.21
  A 187.53 187.53 0.0 0 1 62.69 250.68
  A 187.53 187.53 0.0 0 1 250.22 63.15
  A 187.53 187.53 0.0 0 1 437.75 250.68
  Z
  M 324.16 91.68
  C 308.56 84.49 293.04 80.28 276.44 77.24
  C 274.65 76.92 272.58 77.01 270.66 76.67
  Q 267.53 76.12 266.39 76.06
  Q 249.82 75.10 233.26 76.06
  C 231.69 76.15 230.04 76.83 228.51 76.85
  Q 225.41 76.90 223.41 77.25
  Q 207.29 80.09 191.62 85.37
  Q 189.81 85.98 191.23 87.27
  C 246.69 137.22 294.88 196.22 328.40 263.38
  A 0.69 0.69 0.0 0 0 329.45 263.61
  L 354.76 243.25
  A 0.91 0.85 60.5 0 0 355.00 242.24
  C 347.41 222.83 342.31 205.67 337.41 182.71
  Q 328.95 143.00 325.77 102.52
  Q 325.37 97.41 325.02 92.91
  Q 324.95 92.04 324.16 91.68
  Z
  M 173.68 93.16
  C 132.12 113.03 101.01 148.70 84.90 191.89
  Q 84.58 192.75 85.47 192.94
  C 91.61 194.23 98.58 195.07 104.15 196.18
  Q 125.66 200.48 138.23 203.60
  Q 144.83 205.24 158.88 209.30
  C 169.23 212.30 181.17 216.30 189.67 219.60
  C 227.85 234.41 266.83 255.48 287.69 292.61
  A 1.13 1.13 0.0 0 0 289.33 292.98
  L 318.23 272.24
  Q 318.75 271.87 318.55 271.27
  Q 317.96 269.52 316.56 266.69
  Q 305.06 243.39 293.31 224.93
  C 263.90 178.74 227.72 136.89 186.95 99.68
  C 184.21 97.19 180.91 94.65 177.94 92.06
  C 176.64 90.93 174.61 92.72 173.68 93.16
  Z
  M 413.96 188.04
  C 400.67 151.03 372.41 118.93 338.61 99.28
  Q 338.05 98.96 338.00 99.60
  Q 337.68 103.58 337.90 105.75
  Q 338.89 115.69 340.13 125.59
  Q 341.24 134.40 342.34 143.21
  Q 342.82 147.04 344.30 157.24
  Q 347.19 177.16 354.26 204.49
  Q 357.74 217.93 364.03 234.17
  Q 364.23 234.67 364.70 234.40
  Q 365.94 233.68 367.40 232.39
  Q 385.09 216.75 397.33 205.38
  Q 405.83 197.48 413.69 189.31
  A 1.23 1.23 0.0 0 0 413.96 188.04
  Z
  M 424.87 232.38
  Q 424.20 220.22 418.86 202.48
  Q 418.72 202.02 418.37 202.35
  Q 416.22 204.33 414.13 206.36
  C 400.06 220.00 385.22 232.97 370.53 245.79
  A 1.98 1.98 0.0 0 0 370.06 248.15
  C 378.84 265.91 391.38 284.86 411.61 290.70
  Q 412.60 290.99 413.93 291.07
  C 416.25 291.21 417.67 292.40 419.98 291.91
  Q 420.49 291.80 420.71 291.33
  Q 421.33 289.97 421.65 288.48
  Q 425.76 269.39 425.80 249.89
  C 425.82 244.45 425.20 238.22 424.87 232.38
  Z
  M 136.63 353.66
  Q 138.17 353.72 139.70 353.63
  L 152.48 352.84
  Q 152.89 352.81 153.28 352.68
  Q 154.02 352.41 155.26 352.30
  Q 158.27 352.02 165.73 350.48
  C 204.64 342.45 241.13 323.39 275.31 302.10
  A 1.13 1.11 -28.0 0 0 275.75 300.69
  C 270.01 287.91 259.27 275.86 248.51 267.00
  C 226.93 249.23 201.22 236.61 175.49 227.58
  Q 134.15 213.06 88.47 206.08
  C 86.52 205.78 84.22 204.73 81.57 205.04
  Q 81.10 205.09 80.93 205.53
  Q 79.85 208.32 79.18 211.26
  Q 68.24 259.38 83.84 306.04
  C 88.75 320.73 95.87 336.15 105.05 348.69
  Q 105.35 349.10 105.83 349.26
  Q 114.57 352.15 123.76 352.89
  Q 130.19 353.40 136.63 353.66
  Z
  M 360.60 386.88
  C 386.83 366.05 406.38 336.88 417.07 305.17
  Q 417.39 304.22 416.39 304.06
  C 389.04 299.70 373.28 278.60 360.91 255.25
  A 0.87 0.87 0.0 0 0 359.60 254.98
  L 334.34 275.15
  Q 333.94 275.47 334.13 275.95
  Q 341.11 293.43 343.77 301.01
  Q 354.14 330.59 357.89 361.66
  C 358.78 368.97 359.07 378.31 359.94 386.61
  A 0.41 0.41 0.0 0 0 360.60 386.88
  Z
  M 294.78 311.24
  C 304.22 352.93 284.37 392.01 260.99 424.47
  Q 260.38 425.33 261.42 425.51
  C 264.02 425.97 267.55 425.05 270.27 424.96
  Q 271.86 424.91 273.98 424.45
  C 275.90 424.04 277.84 424.22 279.69 423.58
  C 281.16 423.07 283.33 422.94 284.28 422.74
  Q 299.48 419.63 310.29 415.55
  Q 329.23 408.40 346.29 397.43
  Q 347.03 396.95 347.10 396.07
  C 347.72 388.53 347.21 380.64 346.96 373.08
  C 346.84 369.34 346.18 364.97 345.77 360.50
  Q 345.16 353.80 341.85 338.55
  Q 335.81 310.69 324.46 284.02
  A 0.82 0.82 0.0 0 0 323.24 283.67
  L 293.62 304.47
  Q 292.77 305.07 293.17 306.03
  Q 294.14 308.39 294.78 311.24
  Z
  M 179.80 411.30
  C 197.09 418.81 216.64 424.26 235.53 425.41
  C 237.67 425.55 240.69 426.24 243.43 425.95
  Q 243.91 425.90 244.22 425.53
  Q 262.27 403.87 273.71 378.26
  C 278.12 368.40 281.71 357.57 282.82 347.50
  Q 283.72 339.37 283.18 326.91
  C 282.99 322.57 282.04 318.55 280.90 314.48
  A 1.42 1.41 -24.1 0 0 278.77 313.67
  C 254.15 329.46 228.17 342.98 200.76 352.98
  Q 180.53 360.37 159.20 363.45
  Q 151.49 364.57 143.75 365.52
  Q 138.86 366.12 131.34 365.76
  C 127.77 365.59 122.52 364.58 117.97 364.74
  A 0.46 0.46 0.0 0 0 117.64 365.51
  C 134.84 384.90 156.08 401.01 179.80 411.30
  Z"
/>
</svg>
