<?xml version="1.0" encoding="UTF-8" standalone="no"?>
<!DOCTYPE svg PUBLIC "-//W3C//DTD SVG 1.1//EN" "http://www.w3.org/Graphics/SVG/1.1/DTD/svg11.dtd">
<svg xmlns="http://www.w3.org/2000/svg" version="1.1" viewBox="0.00 0.00 2490.00 455.00">
<g stroke-width="2.00" fill="none" stroke-linecap="butt">
<path stroke="#b1dbac" vector-effect="non-scaling-stroke" d="
  M 347.14 82.64
  A 1.59 1.59 0.0 0 0 344.98 81.16
  L 341.71 82.42
  A 1.59 1.59 0.0 0 0 340.69 83.90
  L 340.05 309.74
  A 1.59 1.59 0.0 0 0 341.80 311.33
  L 347.39 310.78
  A 1.59 1.59 0.0 0 0 348.83 309.19
  L 347.14 82.64"
/>
<path stroke="#a2eb97" vector-effect="non-scaling-stroke" d="
  M 104.00 233.93
  C 104.82 228.22 105.09 223.76 98.09 222.59
  Q 88.88 221.05 80.16 224.17
  C 74.58 226.17 70.26 230.26 64.41 231.99
  C 61.72 232.78 56.73 233.69 55.66 236.47
  Q 52.97 243.52 52.17 251.80
  C 48.69 288.09 79.40 307.16 112.00 305.67
  Q 126.20 305.02 140.40 304.19
  Q 151.96 303.53 159.01 301.50
  C 176.09 296.59 189.56 283.62 201.67 270.91
  C 209.77 262.41 214.67 248.61 215.92 237.00
  C 219.23 206.34 195.24 189.64 170.06 180.53
  C 157.58 176.02 139.34 171.73 133.02 158.43
  C 128.81 149.57 130.92 137.90 136.03 129.82
  C 140.25 123.16 146.40 119.00 153.99 117.20
  C 168.15 113.86 183.08 117.88 183.73 135.00
  Q 184.10 144.65 183.31 154.26
  Q 183.09 156.95 185.63 157.02
  Q 207.09 157.63 227.94 152.69
  Q 234.11 151.23 234.62 145.01
  C 237.12 114.26 225.92 93.66 196.02 85.38
  C 165.60 76.96 134.69 82.63 108.44 99.90
  C 92.12 110.64 81.25 130.54 77.69 149.26
  C 73.52 171.29 88.83 190.45 107.60 199.85
  Q 120.83 206.48 134.88 211.10
  C 145.98 214.75 154.39 223.21 162.26 232.18
  C 166.85 237.41 169.14 241.81 164.49 247.75
  C 156.49 257.98 147.74 266.37 135.98 272.12
  Q 124.70 277.64 116.14 269.16
  C 106.58 259.69 102.07 247.33 104.00 233.93"
/>
<path stroke="#a2eb97" vector-effect="non-scaling-stroke" d="
  M 706.40 195.90
  C 712.36 198.60 717.00 204.44 719.87 210.13
  C 725.06 220.40 724.62 232.34 718.47 242.10
  C 711.09 253.82 697.38 256.48 684.25 256.53
  Q 597.00 256.91 509.75 256.68
  C 505.45 256.67 500.94 257.74 499.23 261.49
  C 496.37 267.75 497.83 278.78 506.75 278.78
  Q 591.99 278.76 677.22 278.75
  C 697.06 278.75 715.45 276.85 730.04 262.43
  C 754.05 238.69 747.53 195.41 718.54 178.63
  C 708.55 172.85 698.48 171.36 687.00 171.35
  C 637.29 171.28 587.58 171.05 537.87 170.97
  C 529.27 170.95 522.14 168.93 520.49 159.74
  C 518.93 151.05 520.60 141.23 530.12 138.46
  C 532.90 137.65 536.65 137.86 539.75 137.86
  Q 637.00 137.81 734.25 137.77
  C 739.50 137.77 742.81 134.83 744.09 129.78
  C 745.85 122.82 744.24 115.74 735.71 115.62
  Q 657.11 114.57 552.75 114.15
  C 542.72 114.11 530.58 114.83 521.56 118.28
  C 498.77 127.01 491.41 155.11 503.54 175.26
  C 511.47 188.43 526.26 192.84 541.25 192.95
  Q 580.07 193.22 693.49 193.13
  Q 700.27 193.12 706.40 195.90"
/>
<path stroke="#a2eb97" vector-effect="non-scaling-stroke" d="
  M 1938.68 159.66
  C 1948.90 144.77 1965.98 138.29 1983.75 138.28
  Q 2060.90 138.23 2138.04 138.26
  Q 2144.34 138.27 2146.82 137.23
  C 2152.30 134.95 2154.98 129.06 2154.74 123.25
  C 2154.36 114.08 2144.06 115.43 2138.50 115.34
  Q 2072.00 114.35 2005.50 114.97
  Q 1986.55 115.14 1975.75 116.51
  Q 1963.46 118.06 1959.48 119.26
  C 1925.62 129.47 1907.57 159.56 1907.17 193.76
  Q 1906.76 229.02 1907.26 264.28
  C 1907.37 272.52 1908.05 277.84 1917.79 277.15
  Q 1928.97 276.35 1928.93 265.51
  Q 1928.81 237.76 1928.99 210.00
  C 1929.09 193.06 1928.61 174.34 1938.68 159.66"
/>
<path stroke="#a2eb97" vector-effect="non-scaling-stroke" d="
  M 1007.62 128.24
  C 997.60 117.01 984.15 115.42 969.50 115.33
  Q 878.05 114.80 786.61 115.34
  Q 778.95 115.39 776.09 116.75
  Q 770.31 119.52 770.38 127.24
  C 770.54 143.26 770.03 160.08 770.03 175.25
  Q 770.03 220.91 770.04 266.57
  C 770.04 276.36 773.65 279.15 783.29 277.75
  C 790.49 276.71 791.77 270.40 791.75 264.25
  Q 791.65 231.38 791.70 198.50
  Q 791.71 196.08 792.19 194.16
  Q 792.32 193.61 792.87 193.47
  Q 794.46 193.06 796.50 193.05
  Q 860.63 192.94 924.76 193.05
  C 943.74 193.08 967.03 193.74 982.25 193.16
  C 1014.80 191.91 1028.41 151.53 1007.62 128.24"
/>
<path stroke="#a2eb97" vector-effect="non-scaling-stroke" d="
  M 1238.48 273.44
  C 1294.93 252.60 1308.34 179.91 1265.78 138.20
  Q 1246.27 119.08 1219.23 116.20
  Q 1209.06 115.12 1200.75 115.05
  Q 1163.15 114.75 1122.10 115.79
  Q 1111.43 116.06 1106.49 117.05
  C 1087.99 120.78 1072.00 132.55 1060.35 146.98
  C 1025.28 190.43 1046.22 256.19 1097.89 274.14
  C 1109.03 278.02 1121.86 278.72 1133.87 278.85
  Q 1158.09 279.13 1182.31 279.40
  Q 1194.37 279.53 1201.19 279.28
  C 1214.18 278.79 1228.07 277.28 1238.48 273.44"
/>
<path stroke="#a2eb97" vector-effect="non-scaling-stroke" d="
  M 1701.40 139.55
  Q 1701.64 140.00 1701.64 141.00
  Q 1702.11 204.63 1701.90 268.25
  C 1701.87 276.00 1706.44 278.94 1713.44 278.82
  C 1719.18 278.72 1723.62 275.91 1723.66 269.75
  Q 1723.86 239.57 1723.94 145.00
  Q 1723.94 142.31 1724.39 139.60
  Q 1724.47 139.09 1724.98 139.04
  Q 1728.36 138.68 1729.75 138.67
  Q 1775.87 138.38 1822.00 138.71
  C 1828.17 138.75 1834.97 137.82 1836.08 130.57
  C 1837.49 121.34 1836.01 115.41 1825.50 115.39
  C 1751.58 115.27 1677.67 115.18 1603.75 114.84
  Q 1599.08 114.82 1595.75 116.18
  C 1586.66 119.91 1586.23 135.03 1595.55 137.93
  Q 1597.65 138.58 1607.50 138.57
  Q 1653.52 138.54 1700.30 138.87
  Q 1701.05 138.88 1701.40 139.55"
/>
<path stroke="#a2eb97" vector-effect="non-scaling-stroke" d="
  M 2292.67 193.68
  A 1.03 1.03 0.0 0 1 2293.42 194.67
  Q 2293.36 231.98 2293.19 268.51
  C 2293.13 281.37 2315.02 280.98 2314.93 267.00
  Q 2314.79 244.47 2314.93 200.68
  C 2314.94 196.41 2315.42 193.30 2320.37 193.36
  C 2339.54 193.62 2358.89 194.80 2377.99 192.85
  C 2417.51 188.81 2430.82 159.28 2427.53 123.25
  Q 2427.11 118.67 2423.00 116.80
  C 2419.11 115.04 2410.73 113.93 2408.26 118.73
  C 2407.40 120.40 2406.96 123.25 2406.90 125.48
  C 2406.34 148.14 2403.55 170.70 2374.50 170.71
  Q 2303.62 170.72 2232.75 170.61
  C 2203.29 170.57 2202.17 147.83 2201.17 125.46
  C 2200.84 118.03 2196.77 115.89 2190.00 115.07
  C 2183.19 114.25 2180.69 119.06 2179.92 124.75
  C 2175.42 157.96 2192.93 191.53 2230.00 192.26
  Q 2260.25 192.85 2290.50 193.40
  Q 2291.82 193.43 2292.67 193.68"
/>
<path stroke="#a2eb97" vector-effect="non-scaling-stroke" d="
  M 1514.32 194.07
  C 1521.11 192.09 1528.70 193.34 1535.57 191.13
  Q 1553.08 185.53 1560.35 167.91
  C 1570.44 143.43 1555.82 120.54 1530.25 116.77
  Q 1521.49 115.48 1510.50 115.46
  Q 1420.18 115.29 1329.85 115.25
  C 1324.18 115.25 1319.80 116.22 1317.28 121.24
  Q 1315.91 123.98 1315.91 130.97
  Q 1315.91 197.48 1315.93 263.99
  C 1315.93 267.41 1315.78 274.43 1319.47 276.37
  C 1326.14 279.86 1337.31 278.00 1337.38 268.00
  Q 1337.65 232.25 1337.83 196.50
  C 1337.84 192.93 1342.38 193.08 1345.50 193.08
  Q 1395.26 193.03 1444.99 194.44
  C 1468.99 195.12 1489.35 202.68 1506.13 220.35
  C 1521.24 236.26 1529.82 250.96 1544.28 273.09
  C 1546.80 276.95 1549.42 279.67 1553.98 278.99
  C 1561.23 277.92 1566.10 270.40 1562.56 263.51
  C 1549.78 238.65 1533.00 216.67 1513.89 195.58
  A 0.93 0.93 0.0 0 1 1514.32 194.07"
/>
<path stroke="#a2eb97" vector-effect="non-scaling-stroke" d="
  M 1883.21 127.00
  A 10.52 10.52 0.0 0 0 1872.69 116.48
  L 1871.99 116.48
  A 10.52 10.52 0.0 0 0 1861.47 127.00
  L 1861.47 266.94
  A 10.52 10.52 0.0 0 0 1871.99 277.46
  L 1872.69 277.46
  A 10.52 10.52 0.0 0 0 1883.21 266.94
  L 1883.21 127.00"
/>
<path stroke="#a2eb97" vector-effect="non-scaling-stroke" d="
  M 2154.8293 181.7738
  A 10.49 10.49 0.0 0 0 2144.3210 171.3022
  L 1974.9013 171.5979
  A 10.49 10.49 0.0 0 0 1964.4296 182.1062
  L 1964.4307 182.7262
  A 10.49 10.49 0.0 0 0 1974.9390 193.1978
  L 2144.3587 192.9021
  A 10.49 10.49 0.0 0 0 2154.8304 182.3938
  L 2154.8293 181.7738"
/>
<path stroke="#a2eb97" vector-effect="non-scaling-stroke" d="
  M 850.00 380.73
  C 869.49 374.85 870.96 351.65 867.77 335.22
  C 862.54 308.36 827.53 305.63 818.21 330.74
  C 815.78 337.29 816.11 344.81 816.29 352.07
  Q 816.48 359.61 817.94 363.75
  C 820.92 372.21 828.09 380.26 837.24 381.05
  Q 846.36 381.82 850.00 380.73"
/>
<path stroke="#a2eb97" vector-effect="non-scaling-stroke" d="
  M 1735.22 355.43
  Q 1735.37 361.88 1735.22 368.33
  C 1735.20 369.45 1734.65 370.79 1733.75 371.31
  C 1722.80 377.59 1708.65 375.45 1704.00 362.45
  C 1700.87 353.71 1700.72 338.82 1704.68 329.95
  C 1710.67 316.54 1732.02 317.51 1734.91 332.88
  Q 1735.12 334.00 1736.26 334.00
  L 1742.69 333.98
  Q 1743.79 333.97 1743.61 332.89
  C 1741.39 319.02 1730.55 312.73 1717.53 313.64
  C 1701.54 314.75 1693.75 326.82 1693.55 341.75
  C 1693.45 349.09 1692.99 356.63 1694.95 362.94
  C 1700.56 381.04 1717.35 383.81 1733.51 379.79
  C 1735.85 379.21 1743.49 375.00 1743.57 371.25
  Q 1743.79 359.79 1743.76 348.50
  A 0.73 0.73 0.0 0 0 1743.03 347.77
  L 1720.99 347.77
  Q 1720.00 347.77 1720.00 348.76
  L 1719.98 353.88
  Q 1719.98 354.80 1720.89 354.80
  L 1734.62 354.84
  Q 1735.21 354.85 1735.22 355.43"
/>
<path stroke="#a2eb97" vector-effect="non-scaling-stroke" d="
  M 1787.00 381.18
  C 1812.42 379.54 1814.36 340.21 1804.33 324.64
  C 1798.25 315.21 1786.70 311.56 1776.05 314.43
  Q 1764.67 317.50 1759.51 329.53
  C 1756.50 336.54 1756.86 342.15 1756.97 350.74
  C 1757.09 360.30 1758.81 368.38 1765.28 374.70
  C 1771.81 381.06 1778.95 381.69 1787.00 381.18"
/>
<path stroke="#a2eb97" vector-effect="non-scaling-stroke" d="
  M 2007.81 336.16
  C 2002.68 307.77 1965.76 304.97 1957.43 332.92
  Q 1956.20 337.03 1956.18 344.71
  C 1956.16 350.21 1955.78 356.40 1957.05 361.36
  C 1959.49 370.90 1966.64 379.39 1976.58 380.99
  Q 1983.70 382.14 1990.40 380.43
  C 2009.05 375.66 2010.51 351.14 2007.81 336.16"
/>
<path stroke="#a2eb97" vector-effect="non-scaling-stroke" d="
  M 511.69 354.83
  C 518.07 354.73 524.88 355.21 531.21 354.49
  C 543.06 353.14 550.29 345.38 549.55 333.22
  C 548.84 321.48 539.07 314.90 528.24 314.77
  Q 515.59 314.63 503.00 314.71
  Q 502.48 314.71 502.48 315.24
  L 502.46 379.78
  A 0.32 0.31 -0.0 0 0 502.78 380.09
  L 510.77 379.96
  Q 511.04 379.96 511.04 379.69
  L 511.03 355.49
  A 0.67 0.66 -0.4 0 1 511.69 354.83"
/>
<path stroke="#a2eb97" vector-effect="non-scaling-stroke" d="
  M 570.97 373.50
  A 0.73 0.73 0.0 0 1 570.24 372.77
  L 570.21 315.40
  A 0.73 0.73 0.0 0 0 569.49 314.67
  L 562.43 314.60
  A 0.73 0.73 0.0 0 0 561.69 315.33
  L 561.65 379.42
  A 0.73 0.73 0.0 0 0 562.38 380.15
  L 600.78 380.03
  A 0.73 0.73 0.0 0 0 601.51 379.30
  L 601.47 374.22
  A 0.73 0.73 0.0 0 0 600.74 373.49
  L 570.97 373.50"
/>
<path stroke="#a2eb97" vector-effect="non-scaling-stroke" d="
  M 647.83 363.39
  A 0.60 0.60 0.0 0 1 648.39 363.79
  L 654.14 379.72
  A 0.60 0.60 0.0 0 0 654.72 380.11
  L 662.32 379.98
  A 0.60 0.60 0.0 0 0 662.87 379.16
  L 638.40 315.07
  A 0.60 0.60 0.0 0 0 637.84 314.69
  L 631.07 314.61
  A 0.60 0.60 0.0 0 0 630.50 315.00
  L 606.03 379.23
  A 0.60 0.60 0.0 0 0 606.59 380.05
  L 614.25 380.03
  A 0.60 0.60 0.0 0 0 614.81 379.63
  L 620.46 363.83
  A 0.60 0.60 0.0 0 1 621.02 363.43
  L 647.83 363.39"
/>
<path stroke="#a2eb97" vector-effect="non-scaling-stroke" d="
  M 681.51 331.23
  Q 681.51 329.77 682.30 330.99
  L 713.75 379.25
  A 1.91 1.91 0.0 0 0 715.37 380.12
  L 722.67 380.02
  Q 723.35 380.01 723.35 379.33
  L 723.34 314.98
  Q 723.34 314.62 722.98 314.62
  L 714.93 314.62
  Q 714.76 314.62 714.76 314.79
  L 714.76 364.27
  Q 714.76 365.74 713.95 364.51
  Q 698.35 340.54 682.60 316.29
  C 680.94 313.73 676.19 314.45 673.48 314.70
  Q 672.95 314.75 672.95 315.28
  L 672.94 379.77
  Q 672.94 380.10 673.27 380.09
  L 681.27 379.97
  Q 681.52 379.97 681.52 379.73
  L 681.51 331.23"
/>
<path stroke="#a2eb97" vector-effect="non-scaling-stroke" d="
  M 782.37 346.94
  A 0.50 0.50 0.0 0 1 781.49 346.94
  L 765.53 316.02
  Q 764.82 314.64 763.27 314.64
  L 756.26 314.65
  Q 754.88 314.65 755.55 315.86
  L 776.83 354.66
  A 6.41 6.39 30.7 0 1 777.62 357.74
  L 777.57 379.20
  Q 777.57 380.08 778.45 380.07
  L 785.54 379.99
  Q 786.28 379.98 786.28 379.23
  Q 786.27 368.79 786.42 357.75
  Q 786.45 355.64 787.67 353.42
  Q 797.96 334.74 808.44 315.64
  A 0.72 0.71 -75.9 0 0 807.81 314.58
  L 800.31 314.63
  Q 799.12 314.63 798.57 315.69
  L 782.37 346.94"
/>
<path stroke="#a2eb97" vector-effect="non-scaling-stroke" d="
  M 911.74 380.92
  C 921.71 379.49 929.07 370.83 929.19 360.50
  Q 929.37 345.02 929.15 315.17
  Q 929.15 314.54 928.52 314.55
  L 921.18 314.67
  Q 920.55 314.68 920.55 315.31
  Q 920.59 336.35 920.50 357.22
  C 920.48 364.02 919.76 369.22 913.99 372.53
  C 909.91 374.88 903.74 375.24 899.23 373.78
  C 889.94 370.76 889.97 361.88 890.00 353.75
  Q 890.08 334.34 890.01 315.38
  Q 890.00 314.64 889.27 314.64
  L 882.48 314.66
  Q 881.75 314.66 881.75 315.39
  Q 881.65 336.46 881.71 357.66
  Q 881.73 365.02 883.15 368.67
  C 887.75 380.55 900.26 382.56 911.74 380.92"
/>
<path stroke="#a2eb97" vector-effect="non-scaling-stroke" d="
  M 952.10 354.56
  A 0.59 0.58 -0.0 0 1 952.69 353.98
  L 966.73 353.95
  A 1.63 1.62 -14.2 0 1 968.16 354.80
  L 981.59 379.81
  A 0.63 0.63 0.0 0 0 982.14 380.13
  L 991.01 379.95
  Q 991.36 379.95 991.19 379.64
  L 976.21 352.77
  A 0.65 0.65 0.0 0 1 976.50 351.87
  Q 989.55 345.72 988.35 332.34
  C 987.38 321.61 979.30 314.92 968.75 314.78
  Q 956.38 314.62 944.15 314.69
  A 0.57 0.56 90.0 0 0 943.59 315.26
  L 943.62 379.50
  A 0.62 0.62 0.0 0 0 944.25 380.12
  L 951.64 379.96
  A 0.47 0.47 0.0 0 0 952.10 379.49
  L 952.10 354.56"
/>
<path stroke="#a2eb97" vector-effect="non-scaling-stroke" d="
  M 1033.00 354.80
  C 1045.59 354.59 1064.63 357.72 1069.91 341.90
  Q 1071.94 335.84 1070.47 329.74
  C 1067.49 317.41 1056.41 314.54 1045.00 314.64
  Q 1034.65 314.73 1024.37 314.66
  Q 1024.02 314.65 1024.02 315.01
  L 1024.02 379.45
  A 0.67 0.66 89.2 0 0 1024.70 380.12
  L 1031.76 379.98
  Q 1032.49 379.97 1032.49 379.24
  L 1032.51 355.30
  Q 1032.51 354.81 1033.00 354.80"
/>
<path stroke="#a2eb97" vector-effect="non-scaling-stroke" d="
  M 1092.42 373.50
  A 0.68 0.68 0.0 0 1 1091.74 372.82
  L 1091.70 315.27
  A 0.68 0.68 0.0 0 0 1091.01 314.59
  L 1083.68 314.64
  A 0.68 0.68 0.0 0 0 1083.01 315.32
  L 1083.02 379.46
  A 0.68 0.68 0.0 0 0 1083.70 380.14
  L 1122.32 380.04
  A 0.68 0.68 0.0 0 0 1123.00 379.33
  L 1122.77 374.13
  A 0.68 0.68 0.0 0 0 1122.09 373.48
  L 1092.42 373.50"
/>
<path stroke="#a2eb97" vector-effect="non-scaling-stroke" d="
  M 1141.95 363.78
  A 0.54 0.53 -79.7 0 1 1142.45 363.43
  L 1169.09 363.40
  A 0.86 0.84 79.4 0 1 1169.88 363.95
  L 1175.43 379.14
  Q 1175.78 380.11 1176.81 380.09
  L 1183.72 379.99
  Q 1184.66 379.97 1184.32 379.09
  Q 1172.39 347.94 1160.57 316.32
  C 1159.58 313.69 1155.28 314.56 1153.07 314.58
  A 1.41 1.40 -79.9 0 0 1151.77 315.49
  L 1127.56 379.05
  Q 1127.17 380.08 1128.27 380.07
  L 1134.94 380.03
  Q 1136.14 380.02 1136.55 378.89
  L 1141.95 363.78"
/>
<path stroke="#a2eb97" vector-effect="non-scaling-stroke" d="
  M 1214.25 347.03
  A 0.45 0.45 0.0 0 1 1213.45 347.03
  L 1197.39 315.86
  Q 1196.76 314.63 1195.38 314.63
  L 1188.26 314.64
  A 0.86 0.86 0.0 0 0 1187.51 315.92
  L 1209.05 355.16
  A 3.92 3.91 -59.3 0 1 1209.52 357.02
  L 1209.51 379.29
  Q 1209.51 380.06 1210.29 380.06
  L 1217.29 380.02
  A 0.96 0.95 90.0 0 0 1218.24 379.06
  Q 1218.20 368.78 1218.25 357.98
  C 1218.26 356.22 1218.77 354.79 1219.58 353.33
  Q 1229.98 334.68 1240.35 315.62
  Q 1240.92 314.57 1239.72 314.58
  L 1232.27 314.64
  A 2.00 1.97 -76.1 0 0 1230.51 315.72
  L 1214.25 347.03"
/>
<path stroke="#a2eb97" vector-effect="non-scaling-stroke" d="
  M 1289.49 365.51
  Q 1288.84 369.55 1288.12 365.52
  C 1285.16 348.82 1280.87 332.30 1277.07 315.95
  Q 1276.73 314.51 1275.25 314.55
  L 1269.33 314.69
  A 1.03 1.03 0.0 0 0 1268.35 315.96
  L 1283.79 379.50
  Q 1283.92 380.07 1284.51 380.07
  L 1291.48 380.01
  A 1.04 1.02 -81.6 0 0 1292.46 379.27
  L 1307.10 329.30
  Q 1307.27 328.73 1307.43 329.30
  L 1321.51 379.08
  A 1.36 1.35 -8.1 0 0 1322.83 380.06
  L 1328.89 380.02
  Q 1330.11 380.02 1330.39 378.84
  L 1345.77 315.82
  A 0.99 0.98 -83.3 0 0 1344.81 314.60
  L 1338.47 314.62
  Q 1337.22 314.62 1336.95 315.84
  Q 1331.96 338.04 1326.98 360.79
  Q 1326.34 363.74 1325.97 366.75
  Q 1325.91 367.26 1325.61 367.48
  A 0.36 0.36 0.0 0 1 1325.06 367.27
  C 1320.99 349.99 1316.06 332.97 1311.27 315.96
  A 1.82 1.82 0.0 0 0 1309.76 314.64
  Q 1306.87 314.25 1304.03 314.78
  A 0.93 0.93 0.0 0 0 1303.32 315.43
  Q 1297.44 336.04 1291.55 356.76
  Q 1290.06 361.99 1289.49 365.51"
/>
<path stroke="#a2eb97" vector-effect="non-scaling-stroke" d="
  M 1364.98 350.66
  A 0.47 0.47 0.0 0 1 1365.45 350.19
  L 1393.06 349.97
  A 0.47 0.47 0.0 0 0 1393.52 349.51
  L 1393.56 343.54
  A 0.47 0.47 0.0 0 0 1393.09 343.07
  L 1365.47 343.03
  A 0.47 0.47 0.0 0 1 1365.00 342.56
  L 1364.97 322.24
  A 0.47 0.47 0.0 0 1 1365.44 321.77
  L 1397.26 321.72
  A 0.47 0.47 0.0 0 0 1397.73 321.25
  L 1397.67 315.13
  A 0.47 0.47 0.0 0 0 1397.20 314.66
  L 1356.95 314.65
  A 0.47 0.47 0.0 0 0 1356.48 315.12
  L 1356.48 379.67
  A 0.47 0.47 0.0 0 0 1356.95 380.14
  L 1397.55 380.06
  A 0.47 0.47 0.0 0 0 1398.02 379.59
  L 1397.98 373.98
  A 0.47 0.47 0.0 0 0 1397.51 373.51
  L 1365.44 373.48
  A 0.47 0.47 0.0 0 1 1364.97 373.01
  L 1364.98 350.66"
/>
<path stroke="#a2eb97" vector-effect="non-scaling-stroke" d="
  M 1474.54 342.50
  A 0.51 0.51 0.0 0 1 1474.03 343.01
  L 1441.56 343.05
  A 0.51 0.51 0.0 0 1 1441.05 342.54
  L 1441.01 315.13
  A 0.51 0.51 0.0 0 0 1440.49 314.62
  L 1432.98 314.72
  A 0.51 0.51 0.0 0 0 1432.48 315.23
  L 1432.46 379.55
  A 0.51 0.51 0.0 0 0 1432.97 380.06
  L 1440.53 380.00
  A 0.51 0.51 0.0 0 0 1441.04 379.49
  L 1441.02 350.72
  A 0.51 0.51 0.0 0 1 1441.53 350.21
  L 1474.01 350.09
  A 0.51 0.51 0.0 0 1 1474.52 350.60
  L 1474.57 379.52
  A 0.51 0.51 0.0 0 0 1475.08 380.03
  L 1482.61 380.02
  A 0.51 0.51 0.0 0 0 1483.12 379.51
  L 1483.10 315.11
  A 0.51 0.51 0.0 0 0 1482.59 314.60
  L 1475.08 314.63
  A 0.51 0.51 0.0 0 0 1474.57 315.14
  L 1474.54 342.50"
/>
<path stroke="#a2eb97" vector-effect="non-scaling-stroke" d="
  M 1508.24 363.42
  L 1535.01 363.37
  A 0.59 0.58 -10.0 0 1 1535.56 363.75
  L 1541.13 379.12
  Q 1541.48 380.09 1542.50 380.07
  L 1549.28 380.00
  Q 1550.39 379.99 1549.99 378.96
  Q 1538.12 347.99 1526.39 316.45
  C 1525.39 313.75 1521.00 314.52 1518.69 314.63
  A 1.35 1.35 0.0 0 0 1517.50 315.48
  L 1493.30 379.04
  A 0.75 0.75 0.0 0 0 1494.00 380.05
  L 1500.62 380.03
  Q 1501.85 380.02 1502.26 378.87
  L 1507.60 363.88
  Q 1507.76 363.43 1508.24 363.42"
/>
<path stroke="#a2eb97" vector-effect="non-scaling-stroke" d="
  M 1582.30 368.43
  Q 1581.72 367.75 1581.42 366.88
  Q 1572.56 341.41 1563.30 314.85
  A 0.34 0.33 -9.7 0 0 1562.98 314.63
  L 1554.20 314.68
  A 0.32 0.32 0.0 0 0 1553.90 315.11
  L 1577.85 379.54
  A 0.80 0.80 0.0 0 0 1578.61 380.05
  L 1585.68 380.00
  A 0.87 0.87 0.0 0 0 1586.50 379.43
  L 1610.24 315.78
  A 0.85 0.85 0.0 0 0 1609.45 314.64
  L 1602.38 314.60
  Q 1601.11 314.59 1600.69 315.80
  L 1582.42 368.41
  A 0.07 0.07 0.0 0 1 1582.30 368.43"
/>
<path stroke="#a2eb97" vector-effect="non-scaling-stroke" d="
  M 1628.19 350.79
  A 0.62 0.62 0.0 0 1 1628.81 350.17
  L 1656.27 350.01
  A 0.62 0.62 0.0 0 0 1656.89 349.37
  L 1656.72 343.62
  A 0.62 0.62 0.0 0 0 1656.10 343.02
  L 1628.78 343.09
  A 0.62 0.62 0.0 0 1 1628.16 342.47
  L 1628.23 322.39
  A 0.62 0.62 0.0 0 1 1628.85 321.77
  L 1660.40 321.71
  A 0.62 0.62 0.0 0 0 1661.02 321.08
  L 1660.90 315.28
  A 0.62 0.62 0.0 0 0 1660.28 314.67
  L 1620.35 314.63
  A 0.62 0.62 0.0 0 0 1619.73 315.25
  L 1619.71 379.54
  A 0.62 0.62 0.0 0 0 1620.33 380.16
  L 1660.81 380.04
  A 0.62 0.62 0.0 0 0 1661.43 379.40
  L 1661.22 374.10
  A 0.62 0.62 0.0 0 0 1660.60 373.50
  L 1628.80 373.50
  A 0.62 0.62 0.0 0 1 1628.18 372.88
  L 1628.19 350.79"
/>
<path stroke="#a2eb97" vector-effect="non-scaling-stroke" d="
  M 1838.52 321.75
  A 0.49 0.49 0.0 0 1 1839.01 322.24
  L 1839.02 379.59
  A 0.49 0.49 0.0 0 0 1839.52 380.08
  L 1847.19 380.00
  A 0.49 0.49 0.0 0 0 1847.67 379.51
  L 1847.74 322.27
  A 0.49 0.49 0.0 0 1 1848.23 321.78
  L 1868.28 321.72
  A 0.49 0.49 0.0 0 0 1868.77 321.23
  L 1868.74 315.15
  A 0.49 0.49 0.0 0 0 1868.25 314.66
  L 1818.73 314.66
  A 0.49 0.49 0.0 0 0 1818.24 315.14
  L 1818.17 321.26
  A 0.49 0.49 0.0 0 0 1818.66 321.76
  L 1838.52 321.75"
/>
<path stroke="#a2eb97" vector-effect="non-scaling-stroke" d="
  M 1922.15 347.01
  A 0.45 0.45 0.0 0 1 1921.35 347.01
  L 1905.32 315.91
  Q 1904.66 314.64 1903.24 314.64
  L 1896.28 314.64
  Q 1894.72 314.64 1895.47 316.01
  L 1916.84 354.97
  A 5.31 5.24 -59.9 0 1 1917.50 357.53
  L 1917.48 379.26
  Q 1917.48 380.05 1918.27 380.05
  L 1925.24 380.02
  Q 1926.13 380.01 1926.13 379.12
  Q 1926.11 368.54 1926.30 357.48
  Q 1926.33 355.49 1927.29 353.74
  Q 1937.77 334.76 1948.11 315.72
  Q 1948.33 315.31 1948.34 315.19
  Q 1948.37 314.59 1947.76 314.59
  L 1940.07 314.63
  A 1.81 1.81 0.0 0 0 1938.48 315.61
  L 1922.15 347.01"
/>
<path stroke="#a2eb97" vector-effect="non-scaling-stroke" d="
  M 2059.26 366.26
  C 2054.86 379.35 2030.03 377.02 2030.00 361.24
  Q 2029.96 338.61 2029.84 315.44
  Q 2029.84 314.63 2029.02 314.63
  L 2022.28 314.65
  A 0.76 0.75 -89.6 0 0 2021.53 315.40
  Q 2021.48 335.97 2021.50 356.31
  Q 2021.50 364.66 2022.95 368.53
  Q 2026.30 377.44 2036.05 380.37
  C 2039.34 381.36 2043.52 381.22 2047.10 381.17
  C 2056.36 381.02 2064.19 377.01 2067.49 368.09
  Q 2068.99 364.03 2069.01 354.72
  Q 2069.04 334.87 2068.97 315.17
  Q 2068.97 314.64 2068.44 314.65
  L 2061.03 314.66
  Q 2060.48 314.66 2060.48 315.21
  Q 2060.29 335.83 2060.53 356.50
  Q 2060.60 362.25 2059.26 366.26"
/>
<path stroke="#a2eb97" vector-effect="non-scaling-stroke" d="
  M 2091.97 354.52
  A 0.54 0.54 0.0 0 1 2092.51 353.98
  L 2106.65 353.97
  A 1.53 1.52 -13.9 0 1 2108.00 354.78
  L 2120.91 378.88
  A 2.36 2.36 0.0 0 0 2123.04 380.13
  L 2129.96 380.01
  Q 2131.22 379.99 2130.61 378.89
  L 2116.04 352.76
  A 0.80 0.79 65.2 0 1 2116.45 351.63
  C 2124.80 348.46 2128.71 341.19 2128.25 332.42
  C 2127.68 321.66 2118.68 314.83 2108.25 314.75
  Q 2096.09 314.65 2084.06 314.67
  A 0.58 0.58 0.0 0 0 2083.48 315.25
  L 2083.47 379.54
  A 0.56 0.56 0.0 0 0 2084.04 380.10
  L 2091.46 379.97
  A 0.52 0.52 0.0 0 0 2091.97 379.45
  L 2091.97 354.52"
/>
<path stroke="#a2eb97" vector-effect="non-scaling-stroke" d="
  M 2215.77 366.70
  L 2201.66 315.45
  Q 2201.41 314.55 2200.49 314.56
  L 2194.54 314.59
  A 0.67 0.67 0.0 0 0 2193.90 315.07
  Q 2187.03 338.84 2180.34 362.67
  C 2179.96 364.04 2179.90 365.65 2179.56 367.05
  A 0.36 0.36 0.0 0 1 2178.86 367.05
  C 2178.04 363.53 2177.66 359.61 2176.91 356.34
  Q 2172.21 335.91 2167.52 315.83
  Q 2167.23 314.59 2165.96 314.60
  L 2159.72 314.63
  A 0.98 0.97 83.1 0 0 2158.78 315.83
  L 2174.24 379.60
  A 0.60 0.59 82.8 0 0 2174.83 380.06
  L 2182.22 380.03
  A 0.67 0.67 0.0 0 0 2182.86 379.55
  L 2197.66 328.96
  Q 2197.71 328.79 2197.76 328.96
  L 2212.16 379.64
  A 0.68 0.68 0.0 0 0 2212.81 380.13
  L 2219.91 380.01
  Q 2220.60 380.00 2220.76 379.33
  L 2236.42 315.07
  A 0.39 0.39 0.0 0 0 2236.03 314.59
  L 2227.99 314.63
  A 0.38 0.37 -83.0 0 0 2227.63 314.92
  Q 2222.55 337.35 2217.72 359.55
  Q 2216.90 363.36 2216.39 366.66
  Q 2216.17 368.14 2215.77 366.70"
/>
<path stroke="#a2eb97" vector-effect="non-scaling-stroke" d="
  M 2249.17 380.04
  A 0.60 0.60 0.0 0 0 2249.73 379.64
  L 2255.41 363.87
  A 0.60 0.60 0.0 0 1 2255.97 363.47
  L 2282.75 363.39
  A 0.60 0.60 0.0 0 1 2283.31 363.78
  L 2289.15 379.69
  A 0.60 0.60 0.0 0 0 2289.72 380.09
  L 2297.29 380.00
  A 0.60 0.60 0.0 0 0 2297.84 379.19
  L 2273.32 315.00
  A 0.60 0.60 0.0 0 0 2272.77 314.61
  L 2266.08 314.51
  A 0.60 0.60 0.0 0 0 2265.51 314.89
  L 2241.01 379.21
  A 0.60 0.60 0.0 0 0 2241.57 380.02
  L 2249.17 380.04"
/>
<path stroke="#a2eb97" vector-effect="non-scaling-stroke" d="
  M 2344.92 314.63
  A 0.56 0.56 0.0 0 0 2344.42 314.93
  L 2327.85 346.85
  A 0.56 0.56 0.0 0 1 2326.85 346.85
  L 2310.40 314.88
  A 0.56 0.56 0.0 0 0 2309.89 314.57
  L 2301.25 314.67
  A 0.56 0.56 0.0 0 0 2300.77 315.50
  L 2322.96 355.89
  A 0.56 0.56 0.0 0 1 2323.03 356.16
  L 2323.02 379.53
  A 0.56 0.56 0.0 0 0 2323.58 380.09
  L 2331.17 380.02
  A 0.56 0.56 0.0 0 0 2331.73 379.46
  L 2331.74 356.11
  A 0.56 0.56 0.0 0 1 2331.81 355.84
  L 2354.02 315.38
  A 0.56 0.56 0.0 0 0 2353.52 314.55
  L 2344.92 314.63"
/>
<path stroke="#a2eb97" vector-effect="non-scaling-stroke" d="
  M 791.76 141.15
  L 791.80 168.41
  A 3.26 3.26 0.0 0 0 795.07 171.66
  L 979.57 171.34
  A 16.82 15.98 -0.1 0 0 996.36 155.33
  L 996.36 153.51
  A 16.82 15.98 -0.1 0 0 979.51 137.56
  L 795.01 137.88
  A 3.26 3.26 0.0 0 0 791.76 141.15"
/>
<path stroke="#a2eb97" vector-effect="non-scaling-stroke" d="
  M 1268.09 193.72
  A 55.77 55.77 0.0 0 0 1212.32 137.95
  L 1120.90 137.95
  A 55.77 55.77 0.0 0 0 1065.13 193.72
  L 1065.13 200.38
  A 55.77 55.77 0.0 0 0 1120.90 256.15
  L 1212.32 256.15
  A 55.77 55.77 0.0 0 0 1268.09 200.38
  L 1268.09 193.72"
/>
<path stroke="#a2eb97" vector-effect="non-scaling-stroke" d="
  M 1337.17 143.84
  L 1337.21 165.60
  A 6.07 6.07 0.0 0 0 1343.29 171.66
  L 1524.18 171.34
  A 17.60 16.35 -0.1 0 0 1541.75 154.96
  L 1541.75 153.76
  A 17.60 16.35 -0.1 0 0 1524.12 137.44
  L 1343.23 137.76
  A 6.07 6.07 0.0 0 0 1337.17 143.84"
/>
<path stroke="#a2eb97" vector-effect="non-scaling-stroke" d="
  M 849.60 322.55
  C 837.30 316.95 826.65 326.14 825.05 338.25
  C 823.61 349.20 823.58 371.50 838.75 374.00
  C 853.89 376.50 859.72 364.84 860.17 351.75
  C 860.53 341.60 860.38 327.46 849.60 322.55"
/>
<path stroke="#a2eb97" vector-effect="non-scaling-stroke" d="
  M 1783.11 321.13
  C 1771.07 321.02 1766.12 331.32 1765.41 341.94
  C 1764.71 352.49 1764.90 367.63 1776.18 372.87
  Q 1780.57 374.91 1785.52 374.22
  C 1796.81 372.65 1800.44 362.52 1800.86 352.44
  C 1801.38 339.72 1800.66 321.28 1783.11 321.13"
/>
<path stroke="#a2eb97" vector-effect="non-scaling-stroke" d="
  M 1979.79 321.24
  C 1968.42 323.04 1964.84 333.32 1964.40 343.42
  C 1963.87 355.51 1965.05 372.98 1981.13 374.22
  C 2000.80 375.73 2000.91 352.46 1999.68 339.25
  C 1998.70 328.70 1991.44 319.39 1979.79 321.24"
/>
<path stroke="#a2eb97" vector-effect="non-scaling-stroke" d="
  M 510.94 322.50
  L 510.94 346.98
  A 0.75 0.75 0.0 0 0 511.69 347.73
  L 527.85 347.73
  A 13.07 12.11 -0.0 0 0 540.92 335.62
  L 540.92 333.86
  A 13.07 12.11 0.0 0 0 527.85 321.75
  L 511.69 321.75
  A 0.75 0.75 0.0 0 0 510.94 322.50"
/>
<path stroke="#a2eb97" vector-effect="non-scaling-stroke" d="
  M 623.42 355.64
  A 0.47 0.47 0.0 0 0 623.87 356.27
  L 644.99 356.27
  A 0.47 0.47 0.0 0 0 645.44 355.64
  L 634.87 326.56
  A 0.47 0.47 0.0 0 0 633.99 326.56
  L 623.42 355.64"
/>
<path stroke="#a2eb97" vector-effect="non-scaling-stroke" d="
  M 952.03 322.41
  L 952.11 346.19
  A 0.66 0.66 0.0 0 0 952.77 346.85
  L 966.53 346.80
  A 13.18 11.56 -0.2 0 0 979.67 335.19
  L 979.67 333.21
  A 13.18 11.56 -0.2 0 0 966.45 321.70
  L 952.69 321.75
  A 0.66 0.66 0.0 0 0 952.03 322.41"
/>
<path stroke="#a2eb97" vector-effect="non-scaling-stroke" d="
  M 1032.51 322.32
  L 1032.51 347.20
  A 0.51 0.51 0.0 0 0 1033.02 347.71
  L 1049.47 347.71
  A 12.88 12.00 0.0 0 0 1062.35 335.71
  L 1062.35 333.81
  A 12.88 12.00 -0.0 0 0 1049.47 321.81
  L 1033.02 321.81
  A 0.51 0.51 0.0 0 0 1032.51 322.32"
/>
<path stroke="#a2eb97" vector-effect="non-scaling-stroke" d="
  M 1144.89 355.74
  A 0.39 0.39 0.0 0 0 1145.26 356.27
  L 1166.56 356.27
  A 0.39 0.39 0.0 0 0 1166.93 355.74
  L 1156.28 326.39
  A 0.39 0.39 0.0 0 0 1155.54 326.39
  L 1144.89 355.74"
/>
<path stroke="#a2eb97" vector-effect="non-scaling-stroke" d="
  M 1510.62 355.73
  A 0.41 0.41 0.0 0 0 1511.01 356.28
  L 1532.29 356.24
  A 0.41 0.41 0.0 0 0 1532.67 355.69
  L 1521.98 326.47
  A 0.41 0.41 0.0 0 0 1521.21 326.47
  L 1510.62 355.73"
/>
<path stroke="#a2eb97" vector-effect="non-scaling-stroke" d="
  M 2091.99 322.25
  L 2091.91 346.25
  A 0.55 0.55 0.0 0 0 2092.46 346.80
  L 2106.34 346.85
  A 13.11 11.53 0.2 0 0 2119.49 335.37
  L 2119.49 333.33
  A 13.11 11.53 0.2 0 0 2106.42 321.75
  L 2092.54 321.70
  A 0.55 0.55 0.0 0 0 2091.99 322.25"
/>
<path stroke="#a2eb97" vector-effect="non-scaling-stroke" d="
  M 2258.42 355.65
  A 0.47 0.47 0.0 0 0 2258.86 356.28
  L 2279.97 356.24
  A 0.47 0.47 0.0 0 0 2280.41 355.61
  L 2269.81 326.60
  A 0.47 0.47 0.0 0 0 2268.92 326.60
  L 2258.42 355.65"
/>
</g>
<path fill="#ffffff" d="
  M 0.00 0.00
  L 2490.00 0.00
  L 2490.00 455.00
  L 0.00 455.00
  L 0.00 0.00
  Z
  M 347.14 82.64
  A 1.59 1.59 0.0 0 0 344.98 81.16
  L 341.71 82.42
  A 1.59 1.59 0.0 0 0 340.69 83.90
  L 340.05 309.74
  A 1.59 1.59 0.0 0 0 341.80 311.33
  L 347.39 310.78
  A 1.59 1.59 0.0 0 0 348.83 309.19
  L 347.14 82.64
  Z
  M 104.00 233.93
  C 104.82 228.22 105.09 223.76 98.09 222.59
  Q 88.88 221.05 80.16 224.17
  C 74.58 226.17 70.26 230.26 64.41 231.99
  C 61.72 232.78 56.73 233.69 55.66 236.47
  Q 52.97 243.52 52.17 251.80
  C 48.69 288.09 79.40 307.16 112.00 305.67
  Q 126.20 305.02 140.40 304.19
  Q 151.96 303.53 159.01 301.50
  C 176.09 296.59 189.56 283.62 201.67 270.91
  C 209.77 262.41 214.67 248.61 215.92 237.00
  C 219.23 206.34 195.24 189.64 170.06 180.53
  C 157.58 176.02 139.34 171.73 133.02 158.43
  C 128.81 149.57 130.92 137.90 136.03 129.82
  C 140.25 123.16 146.40 119.00 153.99 117.20
  C 168.15 113.86 183.08 117.88 183.73 135.00
  Q 184.10 144.65 183.31 154.26
  Q 183.09 156.95 185.63 157.02
  Q 207.09 157.63 227.94 152.69
  Q 234.11 151.23 234.62 145.01
  C 237.12 114.26 225.92 93.66 196.02 85.38
  C 165.60 76.96 134.69 82.63 108.44 99.90
  C 92.12 110.64 81.25 130.54 77.69 149.26
  C 73.52 171.29 88.83 190.45 107.60 199.85
  Q 120.83 206.48 134.88 211.10
  C 145.98 214.75 154.39 223.21 162.26 232.18
  C 166.85 237.41 169.14 241.81 164.49 247.75
  C 156.49 257.98 147.74 266.37 135.98 272.12
  Q 124.70 277.64 116.14 269.16
  C 106.58 259.69 102.07 247.33 104.00 233.93
  Z
  M 706.40 195.90
  C 712.36 198.60 717.00 204.44 719.87 210.13
  C 725.06 220.40 724.62 232.34 718.47 242.10
  C 711.09 253.82 697.38 256.48 684.25 256.53
  Q 597.00 256.91 509.75 256.68
  C 505.45 256.67 500.94 257.74 499.23 261.49
  C 496.37 267.75 497.83 278.78 506.75 278.78
  Q 591.99 278.76 677.22 278.75
  C 697.06 278.75 715.45 276.85 730.04 262.43
  C 754.05 238.69 747.53 195.41 718.54 178.63
  C 708.55 172.85 698.48 171.36 687.00 171.35
  C 637.29 171.28 587.58 171.05 537.87 170.97
  C 529.27 170.95 522.14 168.93 520.49 159.74
  C 518.93 151.05 520.60 141.23 530.12 138.46
  C 532.90 137.65 536.65 137.86 539.75 137.86
  Q 637.00 137.81 734.25 137.77
  C 739.50 137.77 742.81 134.83 744.09 129.78
  C 745.85 122.82 744.24 115.74 735.71 115.62
  Q 657.11 114.57 552.75 114.15
  C 542.72 114.11 530.58 114.83 521.56 118.28
  C 498.77 127.01 491.41 155.11 503.54 175.26
  C 511.47 188.43 526.26 192.84 541.25 192.95
  Q 580.07 193.22 693.49 193.13
  Q 700.27 193.12 706.40 195.90
  Z
  M 1938.68 159.66
  C 1948.90 144.77 1965.98 138.29 1983.75 138.28
  Q 2060.90 138.23 2138.04 138.26
  Q 2144.34 138.27 2146.82 137.23
  C 2152.30 134.95 2154.98 129.06 2154.74 123.25
  C 2154.36 114.08 2144.06 115.43 2138.50 115.34
  Q 2072.00 114.35 2005.50 114.97
  Q 1986.55 115.14 1975.75 116.51
  Q 1963.46 118.06 1959.48 119.26
  C 1925.62 129.47 1907.57 159.56 1907.17 193.76
  Q 1906.76 229.02 1907.26 264.28
  C 1907.37 272.52 1908.05 277.84 1917.79 277.15
  Q 1928.97 276.35 1928.93 265.51
  Q 1928.81 237.76 1928.99 210.00
  C 1929.09 193.06 1928.61 174.34 1938.68 159.66
  Z
  M 1007.62 128.24
  C 997.60 117.01 984.15 115.42 969.50 115.33
  Q 878.05 114.80 786.61 115.34
  Q 778.95 115.39 776.09 116.75
  Q 770.31 119.52 770.38 127.24
  C 770.54 143.26 770.03 160.08 770.03 175.25
  Q 770.03 220.91 770.04 266.57
  C 770.04 276.36 773.65 279.15 783.29 277.75
  C 790.49 276.71 791.77 270.40 791.75 264.25
  Q 791.65 231.38 791.70 198.50
  Q 791.71 196.08 792.19 194.16
  Q 792.32 193.61 792.87 193.47
  Q 794.46 193.06 796.50 193.05
  Q 860.63 192.94 924.76 193.05
  C 943.74 193.08 967.03 193.74 982.25 193.16
  C 1014.80 191.91 1028.41 151.53 1007.62 128.24
  Z
  M 1238.48 273.44
  C 1294.93 252.60 1308.34 179.91 1265.78 138.20
  Q 1246.27 119.08 1219.23 116.20
  Q 1209.06 115.12 1200.75 115.05
  Q 1163.15 114.75 1122.10 115.79
  Q 1111.43 116.06 1106.49 117.05
  C 1087.99 120.78 1072.00 132.55 1060.35 146.98
  C 1025.28 190.43 1046.22 256.19 1097.89 274.14
  C 1109.03 278.02 1121.86 278.72 1133.87 278.85
  Q 1158.09 279.13 1182.31 279.40
  Q 1194.37 279.53 1201.19 279.28
  C 1214.18 278.79 1228.07 277.28 1238.48 273.44
  Z
  M 1701.40 139.55
  Q 1701.64 140.00 1701.64 141.00
  Q 1702.11 204.63 1701.90 268.25
  C 1701.87 276.00 1706.44 278.94 1713.44 278.82
  C 1719.18 278.72 1723.62 275.91 1723.66 269.75
  Q 1723.86 239.57 1723.94 145.00
  Q 1723.94 142.31 1724.39 139.60
  Q 1724.47 139.09 1724.98 139.04
  Q 1728.36 138.68 1729.75 138.67
  Q 1775.87 138.38 1822.00 138.71
  C 1828.17 138.75 1834.97 137.82 1836.08 130.57
  C 1837.49 121.34 1836.01 115.41 1825.50 115.39
  C 1751.58 115.27 1677.67 115.18 1603.75 114.84
  Q 1599.08 114.82 1595.75 116.18
  C 1586.66 119.91 1586.23 135.03 1595.55 137.93
  Q 1597.65 138.58 1607.50 138.57
  Q 1653.52 138.54 1700.30 138.87
  Q 1701.05 138.88 1701.40 139.55
  Z
  M 2292.67 193.68
  A 1.03 1.03 0.0 0 1 2293.42 194.67
  Q 2293.36 231.98 2293.19 268.51
  C 2293.13 281.37 2315.02 280.98 2314.93 267.00
  Q 2314.79 244.47 2314.93 200.68
  C 2314.94 196.41 2315.42 193.30 2320.37 193.36
  C 2339.54 193.62 2358.89 194.80 2377.99 192.85
  C 2417.51 188.81 2430.82 159.28 2427.53 123.25
  Q 2427.11 118.67 2423.00 116.80
  C 2419.11 115.04 2410.73 113.93 2408.26 118.73
  C 2407.40 120.40 2406.96 123.25 2406.90 125.48
  C 2406.34 148.14 2403.55 170.70 2374.50 170.71
  Q 2303.62 170.72 2232.75 170.61
  C 2203.29 170.57 2202.17 147.83 2201.17 125.46
  C 2200.84 118.03 2196.77 115.89 2190.00 115.07
  C 2183.19 114.25 2180.69 119.06 2179.92 124.75
  C 2175.42 157.96 2192.93 191.53 2230.00 192.26
  Q 2260.25 192.85 2290.50 193.40
  Q 2291.82 193.43 2292.67 193.68
  Z
  M 1514.32 194.07
  C 1521.11 192.09 1528.70 193.34 1535.57 191.13
  Q 1553.08 185.53 1560.35 167.91
  C 1570.44 143.43 1555.82 120.54 1530.25 116.77
  Q 1521.49 115.48 1510.50 115.46
  Q 1420.18 115.29 1329.85 115.25
  C 1324.18 115.25 1319.80 116.22 1317.28 121.24
  Q 1315.91 123.98 1315.91 130.97
  Q 1315.91 197.48 1315.93 263.99
  C 1315.93 267.41 1315.78 274.43 1319.47 276.37
  C 1326.14 279.86 1337.31 278.00 1337.38 268.00
  Q 1337.65 232.25 1337.83 196.50
  C 1337.84 192.93 1342.38 193.08 1345.50 193.08
  Q 1395.26 193.03 1444.99 194.44
  C 1468.99 195.12 1489.35 202.68 1506.13 220.35
  C 1521.24 236.26 1529.82 250.96 1544.28 273.09
  C 1546.80 276.95 1549.42 279.67 1553.98 278.99
  C 1561.23 277.92 1566.10 270.40 1562.56 263.51
  C 1549.78 238.65 1533.00 216.67 1513.89 195.58
  A 0.93 0.93 0.0 0 1 1514.32 194.07
  Z
  M 1883.21 127.00
  A 10.52 10.52 0.0 0 0 1872.69 116.48
  L 1871.99 116.48
  A 10.52 10.52 0.0 0 0 1861.47 127.00
  L 1861.47 266.94
  A 10.52 10.52 0.0 0 0 1871.99 277.46
  L 1872.69 277.46
  A 10.52 10.52 0.0 0 0 1883.21 266.94
  L 1883.21 127.00
  Z
  M 2154.8293 181.7738
  A 10.49 10.49 0.0 0 0 2144.3210 171.3022
  L 1974.9013 171.5979
  A 10.49 10.49 0.0 0 0 1964.4296 182.1062
  L 1964.4307 182.7262
  A 10.49 10.49 0.0 0 0 1974.9390 193.1978
  L 2144.3587 192.9021
  A 10.49 10.49 0.0 0 0 2154.8304 182.3938
  L 2154.8293 181.7738
  Z
  M 850.00 380.73
  C 869.49 374.85 870.96 351.65 867.77 335.22
  C 862.54 308.36 827.53 305.63 818.21 330.74
  C 815.78 337.29 816.11 344.81 816.29 352.07
  Q 816.48 359.61 817.94 363.75
  C 820.92 372.21 828.09 380.26 837.24 381.05
  Q 846.36 381.82 850.00 380.73
  Z
  M 1735.22 355.43
  Q 1735.37 361.88 1735.22 368.33
  C 1735.20 369.45 1734.65 370.79 1733.75 371.31
  C 1722.80 377.59 1708.65 375.45 1704.00 362.45
  C 1700.87 353.71 1700.72 338.82 1704.68 329.95
  C 1710.67 316.54 1732.02 317.51 1734.91 332.88
  Q 1735.12 334.00 1736.26 334.00
  L 1742.69 333.98
  Q 1743.79 333.97 1743.61 332.89
  C 1741.39 319.02 1730.55 312.73 1717.53 313.64
  C 1701.54 314.75 1693.75 326.82 1693.55 341.75
  C 1693.45 349.09 1692.99 356.63 1694.95 362.94
  C 1700.56 381.04 1717.35 383.81 1733.51 379.79
  C 1735.85 379.21 1743.49 375.00 1743.57 371.25
  Q 1743.79 359.79 1743.76 348.50
  A 0.73 0.73 0.0 0 0 1743.03 347.77
  L 1720.99 347.77
  Q 1720.00 347.77 1720.00 348.76
  L 1719.98 353.88
  Q 1719.98 354.80 1720.89 354.80
  L 1734.62 354.84
  Q 1735.21 354.85 1735.22 355.43
  Z
  M 1787.00 381.18
  C 1812.42 379.54 1814.36 340.21 1804.33 324.64
  C 1798.25 315.21 1786.70 311.56 1776.05 314.43
  Q 1764.67 317.50 1759.51 329.53
  C 1756.50 336.54 1756.86 342.15 1756.97 350.74
  C 1757.09 360.30 1758.81 368.38 1765.28 374.70
  C 1771.81 381.06 1778.95 381.69 1787.00 381.18
  Z
  M 2007.81 336.16
  C 2002.68 307.77 1965.76 304.97 1957.43 332.92
  Q 1956.20 337.03 1956.18 344.71
  C 1956.16 350.21 1955.78 356.40 1957.05 361.36
  C 1959.49 370.90 1966.64 379.39 1976.58 380.99
  Q 1983.70 382.14 1990.40 380.43
  C 2009.05 375.66 2010.51 351.14 2007.81 336.16
  Z
  M 511.69 354.83
  C 518.07 354.73 524.88 355.21 531.21 354.49
  C 543.06 353.14 550.29 345.38 549.55 333.22
  C 548.84 321.48 539.07 314.90 528.24 314.77
  Q 515.59 314.63 503.00 314.71
  Q 502.48 314.71 502.48 315.24
  L 502.46 379.78
  A 0.32 0.31 -0.0 0 0 502.78 380.09
  L 510.77 379.96
  Q 511.04 379.96 511.04 379.69
  L 511.03 355.49
  A 0.67 0.66 -0.4 0 1 511.69 354.83
  Z
  M 570.97 373.50
  A 0.73 0.73 0.0 0 1 570.24 372.77
  L 570.21 315.40
  A 0.73 0.73 0.0 0 0 569.49 314.67
  L 562.43 314.60
  A 0.73 0.73 0.0 0 0 561.69 315.33
  L 561.65 379.42
  A 0.73 0.73 0.0 0 0 562.38 380.15
  L 600.78 380.03
  A 0.73 0.73 0.0 0 0 601.51 379.30
  L 601.47 374.22
  A 0.73 0.73 0.0 0 0 600.74 373.49
  L 570.97 373.50
  Z
  M 647.83 363.39
  A 0.60 0.60 0.0 0 1 648.39 363.79
  L 654.14 379.72
  A 0.60 0.60 0.0 0 0 654.72 380.11
  L 662.32 379.98
  A 0.60 0.60 0.0 0 0 662.87 379.16
  L 638.40 315.07
  A 0.60 0.60 0.0 0 0 637.84 314.69
  L 631.07 314.61
  A 0.60 0.60 0.0 0 0 630.50 315.00
  L 606.03 379.23
  A 0.60 0.60 0.0 0 0 606.59 380.05
  L 614.25 380.03
  A 0.60 0.60 0.0 0 0 614.81 379.63
  L 620.46 363.83
  A 0.60 0.60 0.0 0 1 621.02 363.43
  L 647.83 363.39
  Z
  M 681.51 331.23
  Q 681.51 329.77 682.30 330.99
  L 713.75 379.25
  A 1.91 1.91 0.0 0 0 715.37 380.12
  L 722.67 380.02
  Q 723.35 380.01 723.35 379.33
  L 723.34 314.98
  Q 723.34 314.62 722.98 314.62
  L 714.93 314.62
  Q 714.76 314.62 714.76 314.79
  L 714.76 364.27
  Q 714.76 365.74 713.95 364.51
  Q 698.35 340.54 682.60 316.29
  C 680.94 313.73 676.19 314.45 673.48 314.70
  Q 672.95 314.75 672.95 315.28
  L 672.94 379.77
  Q 672.94 380.10 673.27 380.09
  L 681.27 379.97
  Q 681.52 379.97 681.52 379.73
  L 681.51 331.23
  Z
  M 782.37 346.94
  A 0.50 0.50 0.0 0 1 781.49 346.94
  L 765.53 316.02
  Q 764.82 314.64 763.27 314.64
  L 756.26 314.65
  Q 754.88 314.65 755.55 315.86
  L 776.83 354.66
  A 6.41 6.39 30.7 0 1 777.62 357.74
  L 777.57 379.20
  Q 777.57 380.08 778.45 380.07
  L 785.54 379.99
  Q 786.28 379.98 786.28 379.23
  Q 786.27 368.79 786.42 357.75
  Q 786.45 355.64 787.67 353.42
  Q 797.96 334.74 808.44 315.64
  A 0.72 0.71 -75.9 0 0 807.81 314.58
  L 800.31 314.63
  Q 799.12 314.63 798.57 315.69
  L 782.37 346.94
  Z
  M 911.74 380.92
  C 921.71 379.49 929.07 370.83 929.19 360.50
  Q 929.37 345.02 929.15 315.17
  Q 929.15 314.54 928.52 314.55
  L 921.18 314.67
  Q 920.55 314.68 920.55 315.31
  Q 920.59 336.35 920.50 357.22
  C 920.48 364.02 919.76 369.22 913.99 372.53
  C 909.91 374.88 903.74 375.24 899.23 373.78
  C 889.94 370.76 889.97 361.88 890.00 353.75
  Q 890.08 334.34 890.01 315.38
  Q 890.00 314.64 889.27 314.64
  L 882.48 314.66
  Q 881.75 314.66 881.75 315.39
  Q 881.65 336.46 881.71 357.66
  Q 881.73 365.02 883.15 368.67
  C 887.75 380.55 900.26 382.56 911.74 380.92
  Z
  M 952.10 354.56
  A 0.59 0.58 -0.0 0 1 952.69 353.98
  L 966.73 353.95
  A 1.63 1.62 -14.2 0 1 968.16 354.80
  L 981.59 379.81
  A 0.63 0.63 0.0 0 0 982.14 380.13
  L 991.01 379.95
  Q 991.36 379.95 991.19 379.64
  L 976.21 352.77
  A 0.65 0.65 0.0 0 1 976.50 351.87
  Q 989.55 345.72 988.35 332.34
  C 987.38 321.61 979.30 314.92 968.75 314.78
  Q 956.38 314.62 944.15 314.69
  A 0.57 0.56 90.0 0 0 943.59 315.26
  L 943.62 379.50
  A 0.62 0.62 0.0 0 0 944.25 380.12
  L 951.64 379.96
  A 0.47 0.47 0.0 0 0 952.10 379.49
  L 952.10 354.56
  Z
  M 1033.00 354.80
  C 1045.59 354.59 1064.63 357.72 1069.91 341.90
  Q 1071.94 335.84 1070.47 329.74
  C 1067.49 317.41 1056.41 314.54 1045.00 314.64
  Q 1034.65 314.73 1024.37 314.66
  Q 1024.02 314.65 1024.02 315.01
  L 1024.02 379.45
  A 0.67 0.66 89.2 0 0 1024.70 380.12
  L 1031.76 379.98
  Q 1032.49 379.97 1032.49 379.24
  L 1032.51 355.30
  Q 1032.51 354.81 1033.00 354.80
  Z
  M 1092.42 373.50
  A 0.68 0.68 0.0 0 1 1091.74 372.82
  L 1091.70 315.27
  A 0.68 0.68 0.0 0 0 1091.01 314.59
  L 1083.68 314.64
  A 0.68 0.68 0.0 0 0 1083.01 315.32
  L 1083.02 379.46
  A 0.68 0.68 0.0 0 0 1083.70 380.14
  L 1122.32 380.04
  A 0.68 0.68 0.0 0 0 1123.00 379.33
  L 1122.77 374.13
  A 0.68 0.68 0.0 0 0 1122.09 373.48
  L 1092.42 373.50
  Z
  M 1141.95 363.78
  A 0.54 0.53 -79.7 0 1 1142.45 363.43
  L 1169.09 363.40
  A 0.86 0.84 79.4 0 1 1169.88 363.95
  L 1175.43 379.14
  Q 1175.78 380.11 1176.81 380.09
  L 1183.72 379.99
  Q 1184.66 379.97 1184.32 379.09
  Q 1172.39 347.94 1160.57 316.32
  C 1159.58 313.69 1155.28 314.56 1153.07 314.58
  A 1.41 1.40 -79.9 0 0 1151.77 315.49
  L 1127.56 379.05
  Q 1127.17 380.08 1128.27 380.07
  L 1134.94 380.03
  Q 1136.14 380.02 1136.55 378.89
  L 1141.95 363.78
  Z
  M 1214.25 347.03
  A 0.45 0.45 0.0 0 1 1213.45 347.03
  L 1197.39 315.86
  Q 1196.76 314.63 1195.38 314.63
  L 1188.26 314.64
  A 0.86 0.86 0.0 0 0 1187.51 315.92
  L 1209.05 355.16
  A 3.92 3.91 -59.3 0 1 1209.52 357.02
  L 1209.51 379.29
  Q 1209.51 380.06 1210.29 380.06
  L 1217.29 380.02
  A 0.96 0.95 90.0 0 0 1218.24 379.06
  Q 1218.20 368.78 1218.25 357.98
  C 1218.26 356.22 1218.77 354.79 1219.58 353.33
  Q 1229.98 334.68 1240.35 315.62
  Q 1240.92 314.57 1239.72 314.58
  L 1232.27 314.64
  A 2.00 1.97 -76.1 0 0 1230.51 315.72
  L 1214.25 347.03
  Z
  M 1289.49 365.51
  Q 1288.84 369.55 1288.12 365.52
  C 1285.16 348.82 1280.87 332.30 1277.07 315.95
  Q 1276.73 314.51 1275.25 314.55
  L 1269.33 314.69
  A 1.03 1.03 0.0 0 0 1268.35 315.96
  L 1283.79 379.50
  Q 1283.92 380.07 1284.51 380.07
  L 1291.48 380.01
  A 1.04 1.02 -81.6 0 0 1292.46 379.27
  L 1307.10 329.30
  Q 1307.27 328.73 1307.43 329.30
  L 1321.51 379.08
  A 1.36 1.35 -8.1 0 0 1322.83 380.06
  L 1328.89 380.02
  Q 1330.11 380.02 1330.39 378.84
  L 1345.77 315.82
  A 0.99 0.98 -83.3 0 0 1344.81 314.60
  L 1338.47 314.62
  Q 1337.22 314.62 1336.95 315.84
  Q 1331.96 338.04 1326.98 360.79
  Q 1326.34 363.74 1325.97 366.75
  Q 1325.91 367.26 1325.61 367.48
  A 0.36 0.36 0.0 0 1 1325.06 367.27
  C 1320.99 349.99 1316.06 332.97 1311.27 315.96
  A 1.82 1.82 0.0 0 0 1309.76 314.64
  Q 1306.87 314.25 1304.03 314.78
  A 0.93 0.93 0.0 0 0 1303.32 315.43
  Q 1297.44 336.04 1291.55 356.76
  Q 1290.06 361.99 1289.49 365.51
  Z
  M 1364.98 350.66
  A 0.47 0.47 0.0 0 1 1365.45 350.19
  L 1393.06 349.97
  A 0.47 0.47 0.0 0 0 1393.52 349.51
  L 1393.56 343.54
  A 0.47 0.47 0.0 0 0 1393.09 343.07
  L 1365.47 343.03
  A 0.47 0.47 0.0 0 1 1365.00 342.56
  L 1364.97 322.24
  A 0.47 0.47 0.0 0 1 1365.44 321.77
  L 1397.26 321.72
  A 0.47 0.47 0.0 0 0 1397.73 321.25
  L 1397.67 315.13
  A 0.47 0.47 0.0 0 0 1397.20 314.66
  L 1356.95 314.65
  A 0.47 0.47 0.0 0 0 1356.48 315.12
  L 1356.48 379.67
  A 0.47 0.47 0.0 0 0 1356.95 380.14
  L 1397.55 380.06
  A 0.47 0.47 0.0 0 0 1398.02 379.59
  L 1397.98 373.98
  A 0.47 0.47 0.0 0 0 1397.51 373.51
  L 1365.44 373.48
  A 0.47 0.47 0.0 0 1 1364.97 373.01
  L 1364.98 350.66
  Z
  M 1474.54 342.50
  A 0.51 0.51 0.0 0 1 1474.03 343.01
  L 1441.56 343.05
  A 0.51 0.51 0.0 0 1 1441.05 342.54
  L 1441.01 315.13
  A 0.51 0.51 0.0 0 0 1440.49 314.62
  L 1432.98 314.72
  A 0.51 0.51 0.0 0 0 1432.48 315.23
  L 1432.46 379.55
  A 0.51 0.51 0.0 0 0 1432.97 380.06
  L 1440.53 380.00
  A 0.51 0.51 0.0 0 0 1441.04 379.49
  L 1441.02 350.72
  A 0.51 0.51 0.0 0 1 1441.53 350.21
  L 1474.01 350.09
  A 0.51 0.51 0.0 0 1 1474.52 350.60
  L 1474.57 379.52
  A 0.51 0.51 0.0 0 0 1475.08 380.03
  L 1482.61 380.02
  A 0.51 0.51 0.0 0 0 1483.12 379.51
  L 1483.10 315.11
  A 0.51 0.51 0.0 0 0 1482.59 314.60
  L 1475.08 314.63
  A 0.51 0.51 0.0 0 0 1474.57 315.14
  L 1474.54 342.50
  Z
  M 1508.24 363.42
  L 1535.01 363.37
  A 0.59 0.58 -10.0 0 1 1535.56 363.75
  L 1541.13 379.12
  Q 1541.48 380.09 1542.50 380.07
  L 1549.28 380.00
  Q 1550.39 379.99 1549.99 378.96
  Q 1538.12 347.99 1526.39 316.45
  C 1525.39 313.75 1521.00 314.52 1518.69 314.63
  A 1.35 1.35 0.0 0 0 1517.50 315.48
  L 1493.30 379.04
  A 0.75 0.75 0.0 0 0 1494.00 380.05
  L 1500.62 380.03
  Q 1501.85 380.02 1502.26 378.87
  L 1507.60 363.88
  Q 1507.76 363.43 1508.24 363.42
  Z
  M 1582.30 368.43
  Q 1581.72 367.75 1581.42 366.88
  Q 1572.56 341.41 1563.30 314.85
  A 0.34 0.33 -9.7 0 0 1562.98 314.63
  L 1554.20 314.68
  A 0.32 0.32 0.0 0 0 1553.90 315.11
  L 1577.85 379.54
  A 0.80 0.80 0.0 0 0 1578.61 380.05
  L 1585.68 380.00
  A 0.87 0.87 0.0 0 0 1586.50 379.43
  L 1610.24 315.78
  A 0.85 0.85 0.0 0 0 1609.45 314.64
  L 1602.38 314.60
  Q 1601.11 314.59 1600.69 315.80
  L 1582.42 368.41
  A 0.07 0.07 0.0 0 1 1582.30 368.43
  Z
  M 1628.19 350.79
  A 0.62 0.62 0.0 0 1 1628.81 350.17
  L 1656.27 350.01
  A 0.62 0.62 0.0 0 0 1656.89 349.37
  L 1656.72 343.62
  A 0.62 0.62 0.0 0 0 1656.10 343.02
  L 1628.78 343.09
  A 0.62 0.62 0.0 0 1 1628.16 342.47
  L 1628.23 322.39
  A 0.62 0.62 0.0 0 1 1628.85 321.77
  L 1660.40 321.71
  A 0.62 0.62 0.0 0 0 1661.02 321.08
  L 1660.90 315.28
  A 0.62 0.62 0.0 0 0 1660.28 314.67
  L 1620.35 314.63
  A 0.62 0.62 0.0 0 0 1619.73 315.25
  L 1619.71 379.54
  A 0.62 0.62 0.0 0 0 1620.33 380.16
  L 1660.81 380.04
  A 0.62 0.62 0.0 0 0 1661.43 379.40
  L 1661.22 374.10
  A 0.62 0.62 0.0 0 0 1660.60 373.50
  L 1628.80 373.50
  A 0.62 0.62 0.0 0 1 1628.18 372.88
  L 1628.19 350.79
  Z
  M 1838.52 321.75
  A 0.49 0.49 0.0 0 1 1839.01 322.24
  L 1839.02 379.59
  A 0.49 0.49 0.0 0 0 1839.52 380.08
  L 1847.19 380.00
  A 0.49 0.49 0.0 0 0 1847.67 379.51
  L 1847.74 322.27
  A 0.49 0.49 0.0 0 1 1848.23 321.78
  L 1868.28 321.72
  A 0.49 0.49 0.0 0 0 1868.77 321.23
  L 1868.74 315.15
  A 0.49 0.49 0.0 0 0 1868.25 314.66
  L 1818.73 314.66
  A 0.49 0.49 0.0 0 0 1818.24 315.14
  L 1818.17 321.26
  A 0.49 0.49 0.0 0 0 1818.66 321.76
  L 1838.52 321.75
  Z
  M 1922.15 347.01
  A 0.45 0.45 0.0 0 1 1921.35 347.01
  L 1905.32 315.91
  Q 1904.66 314.64 1903.24 314.64
  L 1896.28 314.64
  Q 1894.72 314.64 1895.47 316.01
  L 1916.84 354.97
  A 5.31 5.24 -59.9 0 1 1917.50 357.53
  L 1917.48 379.26
  Q 1917.48 380.05 1918.27 380.05
  L 1925.24 380.02
  Q 1926.13 380.01 1926.13 379.12
  Q 1926.11 368.54 1926.30 357.48
  Q 1926.33 355.49 1927.29 353.74
  Q 1937.77 334.76 1948.11 315.72
  Q 1948.33 315.31 1948.34 315.19
  Q 1948.37 314.59 1947.76 314.59
  L 1940.07 314.63
  A 1.81 1.81 0.0 0 0 1938.48 315.61
  L 1922.15 347.01
  Z
  M 2059.26 366.26
  C 2054.86 379.35 2030.03 377.02 2030.00 361.24
  Q 2029.96 338.61 2029.84 315.44
  Q 2029.84 314.63 2029.02 314.63
  L 2022.28 314.65
  A 0.76 0.75 -89.6 0 0 2021.53 315.40
  Q 2021.48 335.97 2021.50 356.31
  Q 2021.50 364.66 2022.95 368.53
  Q 2026.30 377.44 2036.05 380.37
  C 2039.34 381.36 2043.52 381.22 2047.10 381.17
  C 2056.36 381.02 2064.19 377.01 2067.49 368.09
  Q 2068.99 364.03 2069.01 354.72
  Q 2069.04 334.87 2068.97 315.17
  Q 2068.97 314.64 2068.44 314.65
  L 2061.03 314.66
  Q 2060.48 314.66 2060.48 315.21
  Q 2060.29 335.83 2060.53 356.50
  Q 2060.60 362.25 2059.26 366.26
  Z
  M 2091.97 354.52
  A 0.54 0.54 0.0 0 1 2092.51 353.98
  L 2106.65 353.97
  A 1.53 1.52 -13.9 0 1 2108.00 354.78
  L 2120.91 378.88
  A 2.36 2.36 0.0 0 0 2123.04 380.13
  L 2129.96 380.01
  Q 2131.22 379.99 2130.61 378.89
  L 2116.04 352.76
  A 0.80 0.79 65.2 0 1 2116.45 351.63
  C 2124.80 348.46 2128.71 341.19 2128.25 332.42
  C 2127.68 321.66 2118.68 314.83 2108.25 314.75
  Q 2096.09 314.65 2084.06 314.67
  A 0.58 0.58 0.0 0 0 2083.48 315.25
  L 2083.47 379.54
  A 0.56 0.56 0.0 0 0 2084.04 380.10
  L 2091.46 379.97
  A 0.52 0.52 0.0 0 0 2091.97 379.45
  L 2091.97 354.52
  Z
  M 2215.77 366.70
  L 2201.66 315.45
  Q 2201.41 314.55 2200.49 314.56
  L 2194.54 314.59
  A 0.67 0.67 0.0 0 0 2193.90 315.07
  Q 2187.03 338.84 2180.34 362.67
  C 2179.96 364.04 2179.90 365.65 2179.56 367.05
  A 0.36 0.36 0.0 0 1 2178.86 367.05
  C 2178.04 363.53 2177.66 359.61 2176.91 356.34
  Q 2172.21 335.91 2167.52 315.83
  Q 2167.23 314.59 2165.96 314.60
  L 2159.72 314.63
  A 0.98 0.97 83.1 0 0 2158.78 315.83
  L 2174.24 379.60
  A 0.60 0.59 82.8 0 0 2174.83 380.06
  L 2182.22 380.03
  A 0.67 0.67 0.0 0 0 2182.86 379.55
  L 2197.66 328.96
  Q 2197.71 328.79 2197.76 328.96
  L 2212.16 379.64
  A 0.68 0.68 0.0 0 0 2212.81 380.13
  L 2219.91 380.01
  Q 2220.60 380.00 2220.76 379.33
  L 2236.42 315.07
  A 0.39 0.39 0.0 0 0 2236.03 314.59
  L 2227.99 314.63
  A 0.38 0.37 -83.0 0 0 2227.63 314.92
  Q 2222.55 337.35 2217.72 359.55
  Q 2216.90 363.36 2216.39 366.66
  Q 2216.17 368.14 2215.77 366.70
  Z
  M 2249.17 380.04
  A 0.60 0.60 0.0 0 0 2249.73 379.64
  L 2255.41 363.87
  A 0.60 0.60 0.0 0 1 2255.97 363.47
  L 2282.75 363.39
  A 0.60 0.60 0.0 0 1 2283.31 363.78
  L 2289.15 379.69
  A 0.60 0.60 0.0 0 0 2289.72 380.09
  L 2297.29 380.00
  A 0.60 0.60 0.0 0 0 2297.84 379.19
  L 2273.32 315.00
  A 0.60 0.60 0.0 0 0 2272.77 314.61
  L 2266.08 314.51
  A 0.60 0.60 0.0 0 0 2265.51 314.89
  L 2241.01 379.21
  A 0.60 0.60 0.0 0 0 2241.57 380.02
  L 2249.17 380.04
  Z
  M 2344.92 314.63
  A 0.56 0.56 0.0 0 0 2344.42 314.93
  L 2327.85 346.85
  A 0.56 0.56 0.0 0 1 2326.85 346.85
  L 2310.40 314.88
  A 0.56 0.56 0.0 0 0 2309.89 314.57
  L 2301.25 314.67
  A 0.56 0.56 0.0 0 0 2300.77 315.50
  L 2322.96 355.89
  A 0.56 0.56 0.0 0 1 2323.03 356.16
  L 2323.02 379.53
  A 0.56 0.56 0.0 0 0 2323.58 380.09
  L 2331.17 380.02
  A 0.56 0.56 0.0 0 0 2331.73 379.46
  L 2331.74 356.11
  A 0.56 0.56 0.0 0 1 2331.81 355.84
  L 2354.02 315.38
  A 0.56 0.56 0.0 0 0 2353.52 314.55
  L 2344.92 314.63
  Z"
/>
<path fill="#62b658" d="
  M 347.14 82.64
  L 348.83 309.19
  A 1.59 1.59 0.0 0 1 347.39 310.78
  L 341.80 311.33
  A 1.59 1.59 0.0 0 1 340.05 309.74
  L 340.69 83.90
  A 1.59 1.59 0.0 0 1 341.71 82.42
  L 344.98 81.16
  A 1.59 1.59 0.0 0 1 347.14 82.64
  Z"
/>
<path fill="#44d72e" d="
  M 104.00 233.93
  C 102.07 247.33 106.58 259.69 116.14 269.16
  Q 124.70 277.64 135.98 272.12
  C 147.74 266.37 156.49 257.98 164.49 247.75
  C 169.14 241.81 166.85 237.41 162.26 232.18
  C 154.39 223.21 145.98 214.75 134.88 211.10
  Q 120.83 206.48 107.60 199.85
  C 88.83 190.45 73.52 171.29 77.69 149.26
  C 81.25 130.54 92.12 110.64 108.44 99.90
  C 134.69 82.63 165.60 76.96 196.02 85.38
  C 225.92 93.66 237.12 114.26 234.62 145.01
  Q 234.11 151.23 227.94 152.69
  Q 207.09 157.63 185.63 157.02
  Q 183.09 156.95 183.31 154.26
  Q 184.10 144.65 183.73 135.00
  C 183.08 117.88 168.15 113.86 153.99 117.20
  C 146.40 119.00 140.25 123.16 136.03 129.82
  C 130.92 137.90 128.81 149.57 133.02 158.43
  C 139.34 171.73 157.58 176.02 170.06 180.53
  C 195.24 189.64 219.23 206.34 215.92 237.00
  C 214.67 248.61 209.77 262.41 201.67 270.91
  C 189.56 283.62 176.09 296.59 159.01 301.50
  Q 151.96 303.53 140.40 304.19
  Q 126.20 305.02 112.00 305.67
  C 79.40 307.16 48.69 288.09 52.17 251.80
  Q 52.97 243.52 55.66 236.47
  C 56.73 233.69 61.72 232.78 64.41 231.99
  C 70.26 230.26 74.58 226.17 80.16 224.17
  Q 88.88 221.05 98.09 222.59
  C 105.09 223.76 104.82 228.22 104.00 233.93
  Z"
/>
<path fill="#44d72e" d="
  M 706.40 195.90
  Q 700.27 193.12 693.49 193.13
  Q 580.07 193.22 541.25 192.95
  C 526.26 192.84 511.47 188.43 503.54 175.26
  C 491.41 155.11 498.77 127.01 521.56 118.28
  C 530.58 114.83 542.72 114.11 552.75 114.15
  Q 657.11 114.57 735.71 115.62
  C 744.24 115.74 745.85 122.82 744.09 129.78
  C 742.81 134.83 739.50 137.77 734.25 137.77
  Q 637.00 137.81 539.75 137.86
  C 536.65 137.86 532.90 137.65 530.12 138.46
  C 520.60 141.23 518.93 151.05 520.49 159.74
  C 522.14 168.93 529.27 170.95 537.87 170.97
  C 587.58 171.05 637.29 171.28 687.00 171.35
  C 698.48 171.36 708.55 172.85 718.54 178.63
  C 747.53 195.41 754.05 238.69 730.04 262.43
  C 715.45 276.85 697.06 278.75 677.22 278.75
  Q 591.99 278.76 506.75 278.78
  C 497.83 278.78 496.37 267.75 499.23 261.49
  C 500.94 257.74 505.45 256.67 509.75 256.68
  Q 597.00 256.91 684.25 256.53
  C 697.38 256.48 711.09 253.82 718.47 242.10
  C 724.62 232.34 725.06 220.40 719.87 210.13
  C 717.00 204.44 712.36 198.60 706.40 195.90
  Z"
/>
<path fill="#44d72e" d="
  M 1938.68 159.66
  C 1928.61 174.34 1929.09 193.06 1928.99 210.00
  Q 1928.81 237.76 1928.93 265.51
  Q 1928.97 276.35 1917.79 277.15
  C 1908.05 277.84 1907.37 272.52 1907.26 264.28
  Q 1906.76 229.02 1907.17 193.76
  C 1907.57 159.56 1925.62 129.47 1959.48 119.26
  Q 1963.46 118.06 1975.75 116.51
  Q 1986.55 115.14 2005.50 114.97
  Q 2072.00 114.35 2138.50 115.34
  C 2144.06 115.43 2154.36 114.08 2154.74 123.25
  C 2154.98 129.06 2152.30 134.95 2146.82 137.23
  Q 2144.34 138.27 2138.04 138.26
  Q 2060.90 138.23 1983.75 138.28
  C 1965.98 138.29 1948.90 144.77 1938.68 159.66
  Z"
/>
<path fill="#44d72e" d="
  M 1007.62 128.24
  C 1028.41 151.53 1014.80 191.91 982.25 193.16
  C 967.03 193.74 943.74 193.08 924.76 193.05
  Q 860.63 192.94 796.50 193.05
  Q 794.46 193.06 792.87 193.47
  Q 792.32 193.61 792.19 194.16
  Q 791.71 196.08 791.70 198.50
  Q 791.65 231.38 791.75 264.25
  C 791.77 270.40 790.49 276.71 783.29 277.75
  C 773.65 279.15 770.04 276.36 770.04 266.57
  Q 770.03 220.91 770.03 175.25
  C 770.03 160.08 770.54 143.26 770.38 127.24
  Q 770.31 119.52 776.09 116.75
  Q 778.95 115.39 786.61 115.34
  Q 878.05 114.80 969.50 115.33
  C 984.15 115.42 997.60 117.01 1007.62 128.24
  Z
  M 791.76 141.15
  L 791.80 168.41
  A 3.26 3.26 0.0 0 0 795.07 171.66
  L 979.57 171.34
  A 16.82 15.98 -0.1 0 0 996.36 155.33
  L 996.36 153.51
  A 16.82 15.98 -0.1 0 0 979.51 137.56
  L 795.01 137.88
  A 3.26 3.26 0.0 0 0 791.76 141.15
  Z"
/>
<path fill="#44d72e" d="
  M 1265.78 138.20
  C 1308.34 179.91 1294.93 252.60 1238.48 273.44
  C 1228.07 277.28 1214.18 278.79 1201.19 279.28
  Q 1194.37 279.53 1182.31 279.40
  Q 1158.09 279.13 1133.87 278.85
  C 1121.86 278.72 1109.03 278.02 1097.89 274.14
  C 1046.22 256.19 1025.28 190.43 1060.35 146.98
  C 1072.00 132.55 1087.99 120.78 1106.49 117.05
  Q 1111.43 116.06 1122.10 115.79
  Q 1163.15 114.75 1200.75 115.05
  Q 1209.06 115.12 1219.23 116.20
  Q 1246.27 119.08 1265.78 138.20
  Z
  M 1268.09 193.72
  A 55.77 55.77 0.0 0 0 1212.32 137.95
  L 1120.90 137.95
  A 55.77 55.77 0.0 0 0 1065.13 193.72
  L 1065.13 200.38
  A 55.77 55.77 0.0 0 0 1120.90 256.15
  L 1212.32 256.15
  A 55.77 55.77 0.0 0 0 1268.09 200.38
  L 1268.09 193.72
  Z"
/>
<path fill="#44d72e" d="
  M 1701.40 139.55
  Q 1701.05 138.88 1700.30 138.87
  Q 1653.52 138.54 1607.50 138.57
  Q 1597.65 138.58 1595.55 137.93
  C 1586.23 135.03 1586.66 119.91 1595.75 116.18
  Q 1599.08 114.82 1603.75 114.84
  C 1677.67 115.18 1751.58 115.27 1825.50 115.39
  C 1836.01 115.41 1837.49 121.34 1836.08 130.57
  C 1834.97 137.82 1828.17 138.75 1822.00 138.71
  Q 1775.87 138.38 1729.75 138.67
  Q 1728.36 138.68 1724.98 139.04
  Q 1724.47 139.09 1724.39 139.60
  Q 1723.94 142.31 1723.94 145.00
  Q 1723.86 239.57 1723.66 269.75
  C 1723.62 275.91 1719.18 278.72 1713.44 278.82
  C 1706.44 278.94 1701.87 276.00 1701.90 268.25
  Q 1702.11 204.63 1701.64 141.00
  Q 1701.64 140.00 1701.40 139.55
  Z"
/>
<path fill="#44d72e" d="
  M 2292.67 193.68
  Q 2291.82 193.43 2290.50 193.40
  Q 2260.25 192.85 2230.00 192.26
  C 2192.93 191.53 2175.42 157.96 2179.92 124.75
  C 2180.69 119.06 2183.19 114.25 2190.00 115.07
  C 2196.77 115.89 2200.84 118.03 2201.17 125.46
  C 2202.17 147.83 2203.29 170.57 2232.75 170.61
  Q 2303.62 170.72 2374.50 170.71
  C 2403.55 170.70 2406.34 148.14 2406.90 125.48
  C 2406.96 123.25 2407.40 120.40 2408.26 118.73
  C 2410.73 113.93 2419.11 115.04 2423.00 116.80
  Q 2427.11 118.67 2427.53 123.25
  C 2430.82 159.28 2417.51 188.81 2377.99 192.85
  C 2358.89 194.80 2339.54 193.62 2320.37 193.36
  C 2315.42 193.30 2314.94 196.41 2314.93 200.68
  Q 2314.79 244.47 2314.93 267.00
  C 2315.02 280.98 2293.13 281.37 2293.19 268.51
  Q 2293.36 231.98 2293.42 194.67
  A 1.03 1.03 0.0 0 0 2292.67 193.68
  Z"
/>
<path fill="#44d72e" d="
  M 1514.32 194.07
  A 0.93 0.93 0.0 0 0 1513.89 195.58
  C 1533.00 216.67 1549.78 238.65 1562.56 263.51
  C 1566.10 270.40 1561.23 277.92 1553.98 278.99
  C 1549.42 279.67 1546.80 276.95 1544.28 273.09
  C 1529.82 250.96 1521.24 236.26 1506.13 220.35
  C 1489.35 202.68 1468.99 195.12 1444.99 194.44
  Q 1395.26 193.03 1345.50 193.08
  C 1342.38 193.08 1337.84 192.93 1337.83 196.50
  Q 1337.65 232.25 1337.38 268.00
  C 1337.31 278.00 1326.14 279.86 1319.47 276.37
  C 1315.78 274.43 1315.93 267.41 1315.93 263.99
  Q 1315.91 197.48 1315.91 130.97
  Q 1315.91 123.98 1317.28 121.24
  C 1319.80 116.22 1324.18 115.25 1329.85 115.25
  Q 1420.18 115.29 1510.50 115.46
  Q 1521.49 115.48 1530.25 116.77
  C 1555.82 120.54 1570.44 143.43 1560.35 167.91
  Q 1553.08 185.53 1535.57 191.13
  C 1528.70 193.34 1521.11 192.09 1514.32 194.07
  Z
  M 1337.17 143.84
  L 1337.21 165.60
  A 6.07 6.07 0.0 0 0 1343.29 171.66
  L 1524.18 171.34
  A 17.60 16.35 -0.1 0 0 1541.75 154.96
  L 1541.75 153.76
  A 17.60 16.35 -0.1 0 0 1524.12 137.44
  L 1343.23 137.76
  A 6.07 6.07 0.0 0 0 1337.17 143.84
  Z"
/>
<rect fill="#44d72e" x="1861.47" y="116.48" width="21.74" height="160.98" rx="10.52"/>
<path fill="#ffffff" d="
  M 791.76 141.15
  A 3.26 3.26 0.0 0 1 795.01 137.88
  L 979.51 137.56
  A 16.82 15.98 -0.1 0 1 996.36 153.51
  L 996.36 155.33
  A 16.82 15.98 -0.1 0 1 979.57 171.34
  L 795.07 171.66
  A 3.26 3.26 0.0 0 1 791.80 168.41
  L 791.76 141.15
  Z"
/>
<path fill="#ffffff" d="
  M 1337.17 143.84
  A 6.07 6.07 0.0 0 1 1343.23 137.76
  L 1524.12 137.44
  A 17.60 16.35 -0.1 0 1 1541.75 153.76
  L 1541.75 154.96
  A 17.60 16.35 -0.1 0 1 1524.18 171.34
  L 1343.29 171.66
  A 6.07 6.07 0.0 0 1 1337.21 165.60
  L 1337.17 143.84
  Z"
/>
<rect fill="#ffffff" x="1065.13" y="137.95" width="202.96" height="118.20" rx="55.77"/>
<rect fill="#44d72e" x="-95.20" y="-10.80" transform="translate(2059.63,182.25) rotate(-0.1)" width="190.40" height="21.60" rx="10.49"/>
<path fill="#44d72e" d="
  M 867.77 335.22
  C 870.96 351.65 869.49 374.85 850.00 380.73
  Q 846.36 381.82 837.24 381.05
  C 828.09 380.26 820.92 372.21 817.94 363.75
  Q 816.48 359.61 816.29 352.07
  C 816.11 344.81 815.78 337.29 818.21 330.74
  C 827.53 305.63 862.54 308.36 867.77 335.22
  Z
  M 849.60 322.55
  C 837.30 316.95 826.65 326.14 825.05 338.25
  C 823.61 349.20 823.58 371.50 838.75 374.00
  C 853.89 376.50 859.72 364.84 860.17 351.75
  C 860.53 341.60 860.38 327.46 849.60 322.55
  Z"
/>
<path fill="#44d72e" d="
  M 1734.62 354.84
  L 1720.89 354.80
  Q 1719.98 354.80 1719.98 353.88
  L 1720.00 348.76
  Q 1720.00 347.77 1720.99 347.77
  L 1743.03 347.77
  A 0.73 0.73 0.0 0 1 1743.76 348.50
  Q 1743.79 359.79 1743.57 371.25
  C 1743.49 375.00 1735.85 379.21 1733.51 379.79
  C 1717.35 383.81 1700.56 381.04 1694.95 362.94
  C 1692.99 356.63 1693.45 349.09 1693.55 341.75
  C 1693.75 326.82 1701.54 314.75 1717.53 313.64
  C 1730.55 312.73 1741.39 319.02 1743.61 332.89
  Q 1743.79 333.97 1742.69 333.98
  L 1736.26 334.00
  Q 1735.12 334.00 1734.91 332.88
  C 1732.02 317.51 1710.67 316.54 1704.68 329.95
  C 1700.72 338.82 1700.87 353.71 1704.00 362.45
  C 1708.65 375.45 1722.80 377.59 1733.75 371.31
  C 1734.65 370.79 1735.20 369.45 1735.22 368.33
  Q 1735.37 361.88 1735.22 355.43
  Q 1735.21 354.85 1734.62 354.84
  Z"
/>
<path fill="#44d72e" d="
  M 1804.33 324.64
  C 1814.36 340.21 1812.42 379.54 1787.00 381.18
  C 1778.95 381.69 1771.81 381.06 1765.28 374.70
  C 1758.81 368.38 1757.09 360.30 1756.97 350.74
  C 1756.86 342.15 1756.50 336.54 1759.51 329.53
  Q 1764.67 317.50 1776.05 314.43
  C 1786.70 311.56 1798.25 315.21 1804.33 324.64
  Z
  M 1783.11 321.13
  C 1771.07 321.02 1766.12 331.32 1765.41 341.94
  C 1764.71 352.49 1764.90 367.63 1776.18 372.87
  Q 1780.57 374.91 1785.52 374.22
  C 1796.81 372.65 1800.44 362.52 1800.86 352.44
  C 1801.38 339.72 1800.66 321.28 1783.11 321.13
  Z"
/>
<path fill="#44d72e" d="
  M 1957.43 332.92
  C 1965.76 304.97 2002.68 307.77 2007.81 336.16
  C 2010.51 351.14 2009.05 375.66 1990.40 380.43
  Q 1983.70 382.14 1976.58 380.99
  C 1966.64 379.39 1959.49 370.90 1957.05 361.36
  C 1955.78 356.40 1956.16 350.21 1956.18 344.71
  Q 1956.20 337.03 1957.43 332.92
  Z
  M 1979.79 321.24
  C 1968.42 323.04 1964.84 333.32 1964.40 343.42
  C 1963.87 355.51 1965.05 372.98 1981.13 374.22
  C 2000.80 375.73 2000.91 352.46 1999.68 339.25
  C 1998.70 328.70 1991.44 319.39 1979.79 321.24
  Z"
/>
<path fill="#44d72e" d="
  M 511.69 354.83
  A 0.67 0.66 -0.4 0 0 511.03 355.49
  L 511.04 379.69
  Q 511.04 379.96 510.77 379.96
  L 502.78 380.09
  A 0.32 0.31 -0.0 0 1 502.46 379.78
  L 502.48 315.24
  Q 502.48 314.71 503.00 314.71
  Q 515.59 314.63 528.24 314.77
  C 539.07 314.90 548.84 321.48 549.55 333.22
  C 550.29 345.38 543.06 353.14 531.21 354.49
  C 524.88 355.21 518.07 354.73 511.69 354.83
  Z
  M 510.94 322.50
  L 510.94 346.98
  A 0.75 0.75 0.0 0 0 511.69 347.73
  L 527.85 347.73
  A 13.07 12.11 -0.0 0 0 540.92 335.62
  L 540.92 333.86
  A 13.07 12.11 0.0 0 0 527.85 321.75
  L 511.69 321.75
  A 0.75 0.75 0.0 0 0 510.94 322.50
  Z"
/>
<path fill="#44d72e" d="
  M 570.97 373.50
  L 600.74 373.49
  A 0.73 0.73 0.0 0 1 601.47 374.22
  L 601.51 379.30
  A 0.73 0.73 0.0 0 1 600.78 380.03
  L 562.38 380.15
  A 0.73 0.73 0.0 0 1 561.65 379.42
  L 561.69 315.33
  A 0.73 0.73 0.0 0 1 562.43 314.60
  L 569.49 314.67
  A 0.73 0.73 0.0 0 1 570.21 315.40
  L 570.24 372.77
  A 0.73 0.73 0.0 0 0 570.97 373.50
  Z"
/>
<path fill="#44d72e" d="
  M 647.83 363.39
  L 621.02 363.43
  A 0.60 0.60 0.0 0 0 620.46 363.83
  L 614.81 379.63
  A 0.60 0.60 0.0 0 1 614.25 380.03
  L 606.59 380.05
  A 0.60 0.60 0.0 0 1 606.03 379.23
  L 630.50 315.00
  A 0.60 0.60 0.0 0 1 631.07 314.61
  L 637.84 314.69
  A 0.60 0.60 0.0 0 1 638.40 315.07
  L 662.87 379.16
  A 0.60 0.60 0.0 0 1 662.32 379.98
  L 654.72 380.11
  A 0.60 0.60 0.0 0 1 654.14 379.72
  L 648.39 363.79
  A 0.60 0.60 0.0 0 0 647.83 363.39
  Z
  M 623.42 355.64
  A 0.47 0.47 0.0 0 0 623.87 356.27
  L 644.99 356.27
  A 0.47 0.47 0.0 0 0 645.44 355.64
  L 634.87 326.56
  A 0.47 0.47 0.0 0 0 633.99 326.56
  L 623.42 355.64
  Z"
/>
<path fill="#44d72e" d="
  M 681.51 331.23
  L 681.52 379.73
  Q 681.52 379.97 681.27 379.97
  L 673.27 380.09
  Q 672.94 380.10 672.94 379.77
  L 672.95 315.28
  Q 672.95 314.75 673.48 314.70
  C 676.19 314.45 680.94 313.73 682.60 316.29
  Q 698.35 340.54 713.95 364.51
  Q 714.76 365.74 714.76 364.27
  L 714.76 314.79
  Q 714.76 314.62 714.93 314.62
  L 722.98 314.62
  Q 723.34 314.62 723.34 314.98
  L 723.35 379.33
  Q 723.35 380.01 722.67 380.02
  L 715.37 380.12
  A 1.91 1.91 0.0 0 1 713.75 379.25
  L 682.30 330.99
  Q 681.51 329.77 681.51 331.23
  Z"
/>
<path fill="#44d72e" d="
  M 782.37 346.94
  L 798.57 315.69
  Q 799.12 314.63 800.31 314.63
  L 807.81 314.58
  A 0.72 0.71 -75.9 0 1 808.44 315.64
  Q 797.96 334.74 787.67 353.42
  Q 786.45 355.64 786.42 357.75
  Q 786.27 368.79 786.28 379.23
  Q 786.28 379.98 785.54 379.99
  L 778.45 380.07
  Q 777.57 380.08 777.57 379.20
  L 777.62 357.74
  A 6.41 6.39 30.7 0 0 776.83 354.66
  L 755.55 315.86
  Q 754.88 314.65 756.26 314.65
  L 763.27 314.64
  Q 764.82 314.64 765.53 316.02
  L 781.49 346.94
  A 0.50 0.50 0.0 0 0 782.37 346.94
  Z"
/>
<path fill="#44d72e" d="
  M 929.19 360.50
  C 929.07 370.83 921.71 379.49 911.74 380.92
  C 900.26 382.56 887.75 380.55 883.15 368.67
  Q 881.73 365.02 881.71 357.66
  Q 881.65 336.46 881.75 315.39
  Q 881.75 314.66 882.48 314.66
  L 889.27 314.64
  Q 890.00 314.64 890.01 315.38
  Q 890.08 334.34 890.00 353.75
  C 889.97 361.88 889.94 370.76 899.23 373.78
  C 903.74 375.24 909.91 374.88 913.99 372.53
  C 919.76 369.22 920.48 364.02 920.50 357.22
  Q 920.59 336.35 920.55 315.31
  Q 920.55 314.68 921.18 314.67
  L 928.52 314.55
  Q 929.15 314.54 929.15 315.17
  Q 929.37 345.02 929.19 360.50
  Z"
/>
<path fill="#44d72e" d="
  M 952.10 354.56
  L 952.10 379.49
  A 0.47 0.47 0.0 0 1 951.64 379.96
  L 944.25 380.12
  A 0.62 0.62 0.0 0 1 943.62 379.50
  L 943.59 315.26
  A 0.57 0.56 -90.0 0 1 944.15 314.69
  Q 956.38 314.62 968.75 314.78
  C 979.30 314.92 987.38 321.61 988.35 332.34
  Q 989.55 345.72 976.50 351.87
  A 0.65 0.65 0.0 0 0 976.21 352.77
  L 991.19 379.64
  Q 991.36 379.95 991.01 379.95
  L 982.14 380.13
  A 0.63 0.63 0.0 0 1 981.59 379.81
  L 968.16 354.80
  A 1.63 1.62 -14.2 0 0 966.73 353.95
  L 952.69 353.98
  A 0.59 0.58 -0.0 0 0 952.10 354.56
  Z
  M 952.03 322.41
  L 952.11 346.19
  A 0.66 0.66 0.0 0 0 952.77 346.85
  L 966.53 346.80
  A 13.18 11.56 -0.2 0 0 979.67 335.19
  L 979.67 333.21
  A 13.18 11.56 -0.2 0 0 966.45 321.70
  L 952.69 321.75
  A 0.66 0.66 0.0 0 0 952.03 322.41
  Z"
/>
<path fill="#44d72e" d="
  M 1032.51 355.30
  L 1032.49 379.24
  Q 1032.49 379.97 1031.76 379.98
  L 1024.70 380.12
  A 0.67 0.66 89.2 0 1 1024.02 379.45
  L 1024.02 315.01
  Q 1024.02 314.65 1024.37 314.66
  Q 1034.65 314.73 1045.00 314.64
  C 1056.41 314.54 1067.49 317.41 1070.47 329.74
  Q 1071.94 335.84 1069.91 341.90
  C 1064.63 357.72 1045.59 354.59 1033.00 354.80
  Q 1032.51 354.81 1032.51 355.30
  Z
  M 1032.51 322.32
  L 1032.51 347.20
  A 0.51 0.51 0.0 0 0 1033.02 347.71
  L 1049.47 347.71
  A 12.88 12.00 0.0 0 0 1062.35 335.71
  L 1062.35 333.81
  A 12.88 12.00 -0.0 0 0 1049.47 321.81
  L 1033.02 321.81
  A 0.51 0.51 0.0 0 0 1032.51 322.32
  Z"
/>
<path fill="#44d72e" d="
  M 1092.42 373.50
  L 1122.09 373.48
  A 0.68 0.68 0.0 0 1 1122.77 374.13
  L 1123.00 379.33
  A 0.68 0.68 0.0 0 1 1122.32 380.04
  L 1083.70 380.14
  A 0.68 0.68 0.0 0 1 1083.02 379.46
  L 1083.01 315.32
  A 0.68 0.68 0.0 0 1 1083.68 314.64
  L 1091.01 314.59
  A 0.68 0.68 0.0 0 1 1091.70 315.27
  L 1091.74 372.82
  A 0.68 0.68 0.0 0 0 1092.42 373.50
  Z"
/>
<path fill="#44d72e" d="
  M 1141.95 363.78
  L 1136.55 378.89
  Q 1136.14 380.02 1134.94 380.03
  L 1128.27 380.07
  Q 1127.17 380.08 1127.56 379.05
  L 1151.77 315.49
  A 1.41 1.40 -79.9 0 1 1153.07 314.58
  C 1155.28 314.56 1159.58 313.69 1160.57 316.32
  Q 1172.39 347.94 1184.32 379.09
  Q 1184.66 379.97 1183.72 379.99
  L 1176.81 380.09
  Q 1175.78 380.11 1175.43 379.14
  L 1169.88 363.95
  A 0.86 0.84 79.4 0 0 1169.09 363.40
  L 1142.45 363.43
  A 0.54 0.53 -79.7 0 0 1141.95 363.78
  Z
  M 1144.89 355.74
  A 0.39 0.39 0.0 0 0 1145.26 356.27
  L 1166.56 356.27
  A 0.39 0.39 0.0 0 0 1166.93 355.74
  L 1156.28 326.39
  A 0.39 0.39 0.0 0 0 1155.54 326.39
  L 1144.89 355.74
  Z"
/>
<path fill="#44d72e" d="
  M 1214.25 347.03
  L 1230.51 315.72
  A 2.00 1.97 -76.1 0 1 1232.27 314.64
  L 1239.72 314.58
  Q 1240.92 314.57 1240.35 315.62
  Q 1229.98 334.68 1219.58 353.33
  C 1218.77 354.79 1218.26 356.22 1218.25 357.98
  Q 1218.20 368.78 1218.24 379.06
  A 0.96 0.95 90.0 0 1 1217.29 380.02
  L 1210.29 380.06
  Q 1209.51 380.06 1209.51 379.29
  L 1209.52 357.02
  A 3.92 3.91 -59.3 0 0 1209.05 355.16
  L 1187.51 315.92
  A 0.86 0.86 0.0 0 1 1188.26 314.64
  L 1195.38 314.63
  Q 1196.76 314.63 1197.39 315.86
  L 1213.45 347.03
  A 0.45 0.45 0.0 0 0 1214.25 347.03
  Z"
/>
<path fill="#44d72e" d="
  M 1289.49 365.51
  Q 1290.06 361.99 1291.55 356.76
  Q 1297.44 336.04 1303.32 315.43
  A 0.93 0.93 0.0 0 1 1304.03 314.78
  Q 1306.87 314.25 1309.76 314.64
  A 1.82 1.82 0.0 0 1 1311.27 315.96
  C 1316.06 332.97 1320.99 349.99 1325.06 367.27
  A 0.36 0.36 0.0 0 0 1325.61 367.48
  Q 1325.91 367.26 1325.97 366.75
  Q 1326.34 363.74 1326.98 360.79
  Q 1331.96 338.04 1336.95 315.84
  Q 1337.22 314.62 1338.47 314.62
  L 1344.81 314.60
  A 0.99 0.98 -83.3 0 1 1345.77 315.82
  L 1330.39 378.84
  Q 1330.11 380.02 1328.89 380.02
  L 1322.83 380.06
  A 1.36 1.35 -8.1 0 1 1321.51 379.08
  L 1307.43 329.30
  Q 1307.27 328.73 1307.10 329.30
  L 1292.46 379.27
  A 1.04 1.02 -81.6 0 1 1291.48 380.01
  L 1284.51 380.07
  Q 1283.92 380.07 1283.79 379.50
  L 1268.35 315.96
  A 1.03 1.03 0.0 0 1 1269.33 314.69
  L 1275.25 314.55
  Q 1276.73 314.51 1277.07 315.95
  C 1280.87 332.30 1285.16 348.82 1288.12 365.52
  Q 1288.84 369.55 1289.49 365.51
  Z"
/>
<path fill="#44d72e" d="
  M 1364.98 350.66
  L 1364.97 373.01
  A 0.47 0.47 0.0 0 0 1365.44 373.48
  L 1397.51 373.51
  A 0.47 0.47 0.0 0 1 1397.98 373.98
  L 1398.02 379.59
  A 0.47 0.47 0.0 0 1 1397.55 380.06
  L 1356.95 380.14
  A 0.47 0.47 0.0 0 1 1356.48 379.67
  L 1356.48 315.12
  A 0.47 0.47 0.0 0 1 1356.95 314.65
  L 1397.20 314.66
  A 0.47 0.47 0.0 0 1 1397.67 315.13
  L 1397.73 321.25
  A 0.47 0.47 0.0 0 1 1397.26 321.72
  L 1365.44 321.77
  A 0.47 0.47 0.0 0 0 1364.97 322.24
  L 1365.00 342.56
  A 0.47 0.47 0.0 0 0 1365.47 343.03
  L 1393.09 343.07
  A 0.47 0.47 0.0 0 1 1393.56 343.54
  L 1393.52 349.51
  A 0.47 0.47 0.0 0 1 1393.06 349.97
  L 1365.45 350.19
  A 0.47 0.47 0.0 0 0 1364.98 350.66
  Z"
/>
<path fill="#44d72e" d="
  M 1474.54 342.50
  L 1474.57 315.14
  A 0.51 0.51 0.0 0 1 1475.08 314.63
  L 1482.59 314.60
  A 0.51 0.51 0.0 0 1 1483.10 315.11
  L 1483.12 379.51
  A 0.51 0.51 0.0 0 1 1482.61 380.02
  L 1475.08 380.03
  A 0.51 0.51 0.0 0 1 1474.57 379.52
  L 1474.52 350.60
  A 0.51 0.51 0.0 0 0 1474.01 350.09
  L 1441.53 350.21
  A 0.51 0.51 0.0 0 0 1441.02 350.72
  L 1441.04 379.49
  A 0.51 0.51 0.0 0 1 1440.53 380.00
  L 1432.97 380.06
  A 0.51 0.51 0.0 0 1 1432.46 379.55
  L 1432.48 315.23
  A 0.51 0.51 0.0 0 1 1432.98 314.72
  L 1440.49 314.62
  A 0.51 0.51 0.0 0 1 1441.01 315.13
  L 1441.05 342.54
  A 0.51 0.51 0.0 0 0 1441.56 343.05
  L 1474.03 343.01
  A 0.51 0.51 0.0 0 0 1474.54 342.50
  Z"
/>
<path fill="#44d72e" d="
  M 1507.60 363.88
  L 1502.26 378.87
  Q 1501.85 380.02 1500.62 380.03
  L 1494.00 380.05
  A 0.75 0.75 0.0 0 1 1493.30 379.04
  L 1517.50 315.48
  A 1.35 1.35 0.0 0 1 1518.69 314.63
  C 1521.00 314.52 1525.39 313.75 1526.39 316.45
  Q 1538.12 347.99 1549.99 378.96
  Q 1550.39 379.99 1549.28 380.00
  L 1542.50 380.07
  Q 1541.48 380.09 1541.13 379.12
  L 1535.56 363.75
  A 0.59 0.58 -10.0 0 0 1535.01 363.37
  L 1508.24 363.42
  Q 1507.76 363.43 1507.60 363.88
  Z
  M 1510.62 355.73
  A 0.41 0.41 0.0 0 0 1511.01 356.28
  L 1532.29 356.24
  A 0.41 0.41 0.0 0 0 1532.67 355.69
  L 1521.98 326.47
  A 0.41 0.41 0.0 0 0 1521.21 326.47
  L 1510.62 355.73
  Z"
/>
<path fill="#44d72e" d="
  M 1582.30 368.43
  A 0.07 0.07 0.0 0 0 1582.42 368.41
  L 1600.69 315.80
  Q 1601.11 314.59 1602.38 314.60
  L 1609.45 314.64
  A 0.85 0.85 0.0 0 1 1610.24 315.78
  L 1586.50 379.43
  A 0.87 0.87 0.0 0 1 1585.68 380.00
  L 1578.61 380.05
  A 0.80 0.80 0.0 0 1 1577.85 379.54
  L 1553.90 315.11
  A 0.32 0.32 0.0 0 1 1554.20 314.68
  L 1562.98 314.63
  A 0.34 0.33 -9.7 0 1 1563.30 314.85
  Q 1572.56 341.41 1581.42 366.88
  Q 1581.72 367.75 1582.30 368.43
  Z"
/>
<path fill="#44d72e" d="
  M 1628.19 350.79
  L 1628.18 372.88
  A 0.62 0.62 0.0 0 0 1628.80 373.50
  L 1660.60 373.50
  A 0.62 0.62 0.0 0 1 1661.22 374.10
  L 1661.43 379.40
  A 0.62 0.62 0.0 0 1 1660.81 380.04
  L 1620.33 380.16
  A 0.62 0.62 0.0 0 1 1619.71 379.54
  L 1619.73 315.25
  A 0.62 0.62 0.0 0 1 1620.35 314.63
  L 1660.28 314.67
  A 0.62 0.62 0.0 0 1 1660.90 315.28
  L 1661.02 321.08
  A 0.62 0.62 0.0 0 1 1660.40 321.71
  L 1628.85 321.77
  A 0.62 0.62 0.0 0 0 1628.23 322.39
  L 1628.16 342.47
  A 0.62 0.62 0.0 0 0 1628.78 343.09
  L 1656.10 343.02
  A 0.62 0.62 0.0 0 1 1656.72 343.62
  L 1656.89 349.37
  A 0.62 0.62 0.0 0 1 1656.27 350.01
  L 1628.81 350.17
  A 0.62 0.62 0.0 0 0 1628.19 350.79
  Z"
/>
<path fill="#44d72e" d="
  M 1838.52 321.75
  L 1818.66 321.76
  A 0.49 0.49 0.0 0 1 1818.17 321.26
  L 1818.24 315.14
  A 0.49 0.49 0.0 0 1 1818.73 314.66
  L 1868.25 314.66
  A 0.49 0.49 0.0 0 1 1868.74 315.15
  L 1868.77 321.23
  A 0.49 0.49 0.0 0 1 1868.28 321.72
  L 1848.23 321.78
  A 0.49 0.49 0.0 0 0 1847.74 322.27
  L 1847.67 379.51
  A 0.49 0.49 0.0 0 1 1847.19 380.00
  L 1839.52 380.08
  A 0.49 0.49 0.0 0 1 1839.02 379.59
  L 1839.01 322.24
  A 0.49 0.49 0.0 0 0 1838.52 321.75
  Z"
/>
<path fill="#44d72e" d="
  M 1922.15 347.01
  L 1938.48 315.61
  A 1.81 1.81 0.0 0 1 1940.07 314.63
  L 1947.76 314.59
  Q 1948.37 314.59 1948.34 315.19
  Q 1948.33 315.31 1948.11 315.72
  Q 1937.77 334.76 1927.29 353.74
  Q 1926.33 355.49 1926.30 357.48
  Q 1926.11 368.54 1926.13 379.12
  Q 1926.13 380.01 1925.24 380.02
  L 1918.27 380.05
  Q 1917.48 380.05 1917.48 379.26
  L 1917.50 357.53
  A 5.31 5.24 -59.9 0 0 1916.84 354.97
  L 1895.47 316.01
  Q 1894.72 314.64 1896.28 314.64
  L 1903.24 314.64
  Q 1904.66 314.64 1905.32 315.91
  L 1921.35 347.01
  A 0.45 0.45 0.0 0 0 1922.15 347.01
  Z"
/>
<path fill="#44d72e" d="
  M 2030.00 361.24
  C 2030.03 377.02 2054.86 379.35 2059.26 366.26
  Q 2060.60 362.25 2060.53 356.50
  Q 2060.29 335.83 2060.48 315.21
  Q 2060.48 314.66 2061.03 314.66
  L 2068.44 314.65
  Q 2068.97 314.64 2068.97 315.17
  Q 2069.04 334.87 2069.01 354.72
  Q 2068.99 364.03 2067.49 368.09
  C 2064.19 377.01 2056.36 381.02 2047.10 381.17
  C 2043.52 381.22 2039.34 381.36 2036.05 380.37
  Q 2026.30 377.44 2022.95 368.53
  Q 2021.50 364.66 2021.50 356.31
  Q 2021.48 335.97 2021.53 315.40
  A 0.76 0.75 -89.6 0 1 2022.28 314.65
  L 2029.02 314.63
  Q 2029.84 314.63 2029.84 315.44
  Q 2029.96 338.61 2030.00 361.24
  Z"
/>
<path fill="#44d72e" d="
  M 2091.97 354.52
  L 2091.97 379.45
  A 0.52 0.52 0.0 0 1 2091.46 379.97
  L 2084.04 380.10
  A 0.56 0.56 0.0 0 1 2083.47 379.54
  L 2083.48 315.25
  A 0.58 0.58 0.0 0 1 2084.06 314.67
  Q 2096.09 314.65 2108.25 314.75
  C 2118.68 314.83 2127.68 321.66 2128.25 332.42
  C 2128.71 341.19 2124.80 348.46 2116.45 351.63
  A 0.80 0.79 65.2 0 0 2116.04 352.76
  L 2130.61 378.89
  Q 2131.22 379.99 2129.96 380.01
  L 2123.04 380.13
  A 2.36 2.36 0.0 0 1 2120.91 378.88
  L 2108.00 354.78
  A 1.53 1.52 -13.9 0 0 2106.65 353.97
  L 2092.51 353.98
  A 0.54 0.54 0.0 0 0 2091.97 354.52
  Z
  M 2091.99 322.25
  L 2091.91 346.25
  A 0.55 0.55 0.0 0 0 2092.46 346.80
  L 2106.34 346.85
  A 13.11 11.53 0.2 0 0 2119.49 335.37
  L 2119.49 333.33
  A 13.11 11.53 0.2 0 0 2106.42 321.75
  L 2092.54 321.70
  A 0.55 0.55 0.0 0 0 2091.99 322.25
  Z"
/>
<path fill="#44d72e" d="
  M 2215.77 366.70
  Q 2216.17 368.14 2216.39 366.66
  Q 2216.90 363.36 2217.72 359.55
  Q 2222.55 337.35 2227.63 314.92
  A 0.38 0.37 -83.0 0 1 2227.99 314.63
  L 2236.03 314.59
  A 0.39 0.39 0.0 0 1 2236.42 315.07
  L 2220.76 379.33
  Q 2220.60 380.00 2219.91 380.01
  L 2212.81 380.13
  A 0.68 0.68 0.0 0 1 2212.16 379.64
  L 2197.76 328.96
  Q 2197.71 328.79 2197.66 328.96
  L 2182.86 379.55
  A 0.67 0.67 0.0 0 1 2182.22 380.03
  L 2174.83 380.06
  A 0.60 0.59 82.8 0 1 2174.24 379.60
  L 2158.78 315.83
  A 0.98 0.97 83.1 0 1 2159.72 314.63
  L 2165.96 314.60
  Q 2167.23 314.59 2167.52 315.83
  Q 2172.21 335.91 2176.91 356.34
  C 2177.66 359.61 2178.04 363.53 2178.86 367.05
  A 0.36 0.36 0.0 0 0 2179.56 367.05
  C 2179.90 365.65 2179.96 364.04 2180.34 362.67
  Q 2187.03 338.84 2193.90 315.07
  A 0.67 0.67 0.0 0 1 2194.54 314.59
  L 2200.49 314.56
  Q 2201.41 314.55 2201.66 315.45
  L 2215.77 366.70
  Z"
/>
<path fill="#44d72e" d="
  M 2249.17 380.04
  L 2241.57 380.02
  A 0.60 0.60 0.0 0 1 2241.01 379.21
  L 2265.51 314.89
  A 0.60 0.60 0.0 0 1 2266.08 314.51
  L 2272.77 314.61
  A 0.60 0.60 0.0 0 1 2273.32 315.00
  L 2297.84 379.19
  A 0.60 0.60 0.0 0 1 2297.29 380.00
  L 2289.72 380.09
  A 0.60 0.60 0.0 0 1 2289.15 379.69
  L 2283.31 363.78
  A 0.60 0.60 0.0 0 0 2282.75 363.39
  L 2255.97 363.47
  A 0.60 0.60 0.0 0 0 2255.41 363.87
  L 2249.73 379.64
  A 0.60 0.60 0.0 0 1 2249.17 380.04
  Z
  M 2258.42 355.65
  A 0.47 0.47 0.0 0 0 2258.86 356.28
  L 2279.97 356.24
  A 0.47 0.47 0.0 0 0 2280.41 355.61
  L 2269.81 326.60
  A 0.47 0.47 0.0 0 0 2268.92 326.60
  L 2258.42 355.65
  Z"
/>
<path fill="#44d72e" d="
  M 2344.92 314.63
  L 2353.52 314.55
  A 0.56 0.56 0.0 0 1 2354.02 315.38
  L 2331.81 355.84
  A 0.56 0.56 0.0 0 0 2331.74 356.11
  L 2331.73 379.46
  A 0.56 0.56 0.0 0 1 2331.17 380.02
  L 2323.58 380.09
  A 0.56 0.56 0.0 0 1 2323.02 379.53
  L 2323.03 356.16
  A 0.56 0.56 0.0 0 0 2322.96 355.89
  L 2300.77 315.50
  A 0.56 0.56 0.0 0 1 2301.25 314.67
  L 2309.89 314.57
  A 0.56 0.56 0.0 0 1 2310.40 314.88
  L 2326.85 346.85
  A 0.56 0.56 0.0 0 0 2327.85 346.85
  L 2344.42 314.93
  A 0.56 0.56 0.0 0 1 2344.92 314.63
  Z"
/>
<path fill="#ffffff" d="
  M 825.05 338.25
  C 826.65 326.14 837.30 316.95 849.60 322.55
  C 860.38 327.46 860.53 341.60 860.17 351.75
  C 859.72 364.84 853.89 376.50 838.75 374.00
  C 823.58 371.50 823.61 349.20 825.05 338.25
  Z"
/>
<path fill="#ffffff" d="
  M 1765.41 341.94
  C 1766.12 331.32 1771.07 321.02 1783.11 321.13
  C 1800.66 321.28 1801.38 339.72 1800.86 352.44
  C 1800.44 362.52 1796.81 372.65 1785.52 374.22
  Q 1780.57 374.91 1776.18 372.87
  C 1764.90 367.63 1764.71 352.49 1765.41 341.94
  Z"
/>
<path fill="#ffffff" d="
  M 1979.79 321.24
  C 1991.44 319.39 1998.70 328.70 1999.68 339.25
  C 2000.91 352.46 2000.80 375.73 1981.13 374.22
  C 1965.05 372.98 1963.87 355.51 1964.40 343.42
  C 1964.84 333.32 1968.42 323.04 1979.79 321.24
  Z"
/>
<path fill="#ffffff" d="
  M 510.94 322.50
  A 0.75 0.75 0.0 0 1 511.69 321.75
  L 527.85 321.75
  A 13.07 12.11 -0.0 0 1 540.92 333.86
  L 540.92 335.62
  A 13.07 12.11 -0.0 0 1 527.85 347.73
  L 511.69 347.73
  A 0.75 0.75 0.0 0 1 510.94 346.98
  L 510.94 322.50
  Z"
/>
<path fill="#ffffff" d="
  M 952.03 322.41
  A 0.66 0.66 0.0 0 1 952.69 321.75
  L 966.45 321.70
  A 13.18 11.56 -0.2 0 1 979.67 333.21
  L 979.67 335.19
  A 13.18 11.56 -0.2 0 1 966.53 346.80
  L 952.77 346.85
  A 0.66 0.66 0.0 0 1 952.11 346.19
  L 952.03 322.41
  Z"
/>
<path fill="#ffffff" d="
  M 1032.51 322.32
  A 0.51 0.51 0.0 0 1 1033.02 321.81
  L 1049.47 321.81
  A 12.88 12.00 0.0 0 1 1062.35 333.81
  L 1062.35 335.71
  A 12.88 12.00 -0.0 0 1 1049.47 347.71
  L 1033.02 347.71
  A 0.51 0.51 0.0 0 1 1032.51 347.20
  L 1032.51 322.32
  Z"
/>
<path fill="#ffffff" d="
  M 2091.99 322.25
  A 0.55 0.55 0.0 0 1 2092.54 321.70
  L 2106.42 321.75
  A 13.11 11.53 0.2 0 1 2119.49 333.33
  L 2119.49 335.37
  A 13.11 11.53 0.2 0 1 2106.34 346.85
  L 2092.46 346.80
  A 0.55 0.55 0.0 0 1 2091.91 346.25
  L 2091.99 322.25
  Z"
/>
<path fill="#ffffff" d="
  M 1144.89 355.74
  L 1155.54 326.39
  A 0.39 0.39 0.0 0 1 1156.28 326.39
  L 1166.93 355.74
  A 0.39 0.39 0.0 0 1 1166.56 356.27
  L 1145.26 356.27
  A 0.39 0.39 0.0 0 1 1144.89 355.74
  Z"
/>
<path fill="#ffffff" d="
  M 623.42 355.64
  L 633.99 326.56
  A 0.47 0.47 0.0 0 1 634.87 326.56
  L 645.44 355.64
  A 0.47 0.47 0.0 0 1 644.99 356.27
  L 623.87 356.27
  A 0.47 0.47 0.0 0 1 623.42 355.64
  Z"
/>
<path fill="#ffffff" d="
  M 1510.62 355.73
  L 1521.21 326.47
  A 0.41 0.41 0.0 0 1 1521.98 326.47
  L 1532.67 355.69
  A 0.41 0.41 0.0 0 1 1532.29 356.24
  L 1511.01 356.28
  A 0.41 0.41 0.0 0 1 1510.62 355.73
  Z"
/>
<path fill="#ffffff" d="
  M 2258.42 355.65
  L 2268.92 326.60
  A 0.47 0.47 0.0 0 1 2269.81 326.60
  L 2280.41 355.61
  A 0.47 0.47 0.0 0 1 2279.97 356.24
  L 2258.86 356.28
  A 0.47 0.47 0.0 0 1 2258.42 355.65
  Z"
/>
</svg>
