<?xml version="1.0" encoding="UTF-8" standalone="no"?>
<!DOCTYPE svg PUBLIC "-//W3C//DTD SVG 1.1//EN" "http://www.w3.org/Graphics/SVG/1.1/DTD/svg11.dtd">
<svg xmlns="http://www.w3.org/2000/svg" version="1.1" viewBox="0.00 0.00 335.00 745.00">
<path fill="#ededed" d="
  M 108.47 393.98
  C 107.53 389.80 104.10 386.31 101.66 382.59
  A 0.77 0.77 0.0 0 1 102.30 381.40
  Q 103.00 381.39 103.94 382.08
  Q 105.65 383.32 107.09 384.14
  Q 109.38 385.46 108.38 383.01
  Q 107.92 381.87 107.81 380.84
  Q 107.50 378.04 109.56 379.96
  Q 110.44 380.78 111.65 379.97
  Q 112.82 379.18 113.33 379.30
  Q 114.32 379.54 115.44 380.86
  Q 116.16 381.72 117.22 381.35
  Q 118.32 380.96 119.48 381.12
  A 0.64 0.64 0.0 0 0 120.17 380.28
  L 119.28 377.62
  A 0.54 0.54 0.0 0 1 120.14 377.03
  L 122.76 379.18
  A 0.57 0.56 -68.9 0 0 123.68 378.77
  Q 123.76 377.38 124.89 377.41
  Q 125.61 377.42 126.21 378.15
  Q 128.05 380.41 128.50 383.25
  Q 128.59 383.83 128.86 384.36
  L 130.27 387.10
  A 0.85 0.83 55.9 0 1 130.09 388.09
  Q 128.60 389.44 128.57 391.47
  A 0.53 0.52 16.0 0 1 127.77 391.91
  Q 125.53 390.55 123.22 389.06
  Q 122.99 388.91 122.76 388.90
  Q 122.32 388.87 122.28 389.06
  A 2.12 2.10 -57.4 0 0 122.66 390.83
  Q 125.06 393.98 127.05 397.14
  C 128.31 399.14 129.22 402.44 131.39 404.71
  A 1.95 1.95 0.0 0 1 131.18 407.60
  Q 130.73 407.94 130.42 408.42
  A 0.86 0.84 -48.5 0 0 130.47 409.41
  Q 138.36 419.05 147.33 427.69
  A 0.36 0.36 0.0 0 0 147.94 427.45
  C 148.07 425.17 146.58 423.64 146.12 421.54
  Q 146.01 421.03 146.53 421.09
  Q 149.21 421.40 150.93 419.27
  A 0.88 0.88 0.0 0 1 151.84 418.98
  L 153.87 419.52
  Q 154.38 419.66 154.73 419.25
  Q 156.42 417.22 158.95 419.44
  Q 161.39 421.59 163.87 419.55
  Q 164.26 419.23 164.64 419.58
  Q 166.65 421.51 168.40 423.60
  Q 168.94 424.25 169.50 424.36
  A 0.61 0.60 85.1 0 0 170.18 423.55
  Q 167.95 417.78 163.21 413.88
  A 0.92 0.91 -40.9 0 1 163.32 412.39
  Q 165.64 410.97 165.24 408.20
  A 1.03 1.03 0.0 0 1 166.59 407.08
  L 172.29 408.99
  A 1.28 1.27 18.4 0 0 173.91 408.18
  Q 174.68 405.84 174.56 403.33
  A 0.83 0.82 -13.4 0 1 175.06 402.53
  Q 176.26 402.01 177.53 401.96
  A 1.16 1.15 -9.7 0 0 178.59 400.47
  L 177.41 396.61
  A 0.89 0.89 0.0 0 1 177.80 395.59
  L 180.88 393.68
  A 1.22 1.21 -37.8 0 0 181.12 391.81
  L 175.93 386.36
  A 0.86 0.85 58.7 0 0 175.03 386.14
  C 173.59 386.65 172.61 386.50 171.53 385.33
  Q 165.36 378.66 162.19 374.57
  Q 160.08 371.86 157.03 371.24
  C 153.08 370.45 152.65 367.96 149.55 366.12
  A 0.91 0.91 0.0 0 0 148.17 366.94
  L 148.26 368.90
  A 0.79 0.79 0.0 0 1 147.07 369.61
  Q 141.06 366.01 136.37 360.80
  A 1.00 0.99 27.8 0 0 134.64 361.33
  L 134.53 362.10
  Q 134.20 364.55 132.37 362.90
  C 128.28 359.21 123.86 356.06 118.98 353.45
  C 116.78 352.27 115.78 349.55 114.33 347.60
  C 111.04 343.20 108.88 337.13 106.94 332.00
  C 106.19 330.02 106.34 327.96 105.83 326.15
  Q 105.45 324.80 105.02 323.57
  A 1.15 1.15 0.0 0 1 106.50 322.11
  L 109.96 323.39
  A 0.74 0.74 0.0 0 0 110.94 322.53
  C 110.08 318.74 107.93 312.84 110.09 309.42
  Q 112.32 305.90 111.64 301.75
  A 1.19 1.19 0.0 0 1 112.91 300.37
  L 117.65 300.76
  A 1.30 1.29 -0.7 0 0 119.05 299.33
  L 118.62 295.15
  A 1.61 1.56 -35.5 0 1 118.78 294.27
  Q 121.17 289.68 126.16 285.39
  Q 142.60 271.22 164.26 268.22
  Q 182.38 265.71 199.01 268.25
  Q 208.73 269.74 217.96 275.47
  Q 232.40 284.43 234.05 301.51
  C 234.80 309.29 233.71 314.85 233.10 321.59
  A 1.93 1.91 -1.2 0 1 231.43 323.31
  Q 213.03 325.69 194.74 327.45
  Q 193.58 327.56 192.71 327.48
  A 0.82 0.82 0.0 0 1 191.97 326.53
  C 193.34 318.19 195.65 304.78 189.09 298.08
  C 182.61 291.46 165.83 293.15 159.22 299.01
  Q 148.82 308.22 150.48 323.12
  Q 150.82 326.17 151.27 326.99
  C 154.71 333.21 159.24 336.60 165.99 341.51
  Q 166.36 341.78 166.82 341.79
  Q 168.94 341.86 170.76 342.99
  Q 171.22 343.28 171.76 343.25
  Q 175.69 343.10 179.99 344.96
  C 200.82 353.96 222.54 365.29 218.69 392.42
  C 217.94 397.74 215.38 401.44 216.69 407.05
  A 2.39 2.36 47.6 0 1 216.64 408.35
  Q 215.93 410.51 214.12 409.31
  Q 211.89 407.83 209.43 405.90
  A 0.89 0.89 0.0 0 0 208.00 406.44
  Q 207.93 406.85 208.37 407.72
  Q 209.53 409.98 210.37 412.37
  C 211.39 415.29 210.54 418.31 212.13 421.45
  A 0.97 0.97 0.0 0 1 211.13 422.85
  Q 206.32 422.15 202.23 419.28
  Q 201.27 418.61 200.87 418.69
  A 2.29 1.84 75.6 0 0 199.62 421.44
  L 200.46 424.43
  A 0.91 0.90 60.0 0 1 200.23 425.31
  L 192.34 433.35
  A 2.45 2.44 35.4 0 1 189.51 433.82
  L 186.86 432.52
  A 0.66 0.66 0.0 0 0 185.97 432.83
  L 183.72 437.51
  A 1.06 1.03 -42.8 0 0 183.68 438.34
  L 185.28 442.50
  A 1.43 1.42 -4.4 0 1 183.65 444.40
  C 182.12 444.07 179.03 441.20 177.37 440.14
  A 1.14 1.13 -64.2 0 0 175.68 440.73
  L 175.09 442.45
  Q 174.53 444.06 172.85 443.79
  C 167.82 442.97 167.52 440.66 164.19 438.02
  Q 162.12 436.39 162.65 438.97
  Q 163.00 440.67 162.90 442.42
  Q 162.87 442.99 163.13 443.49
  L 165.96 449.01
  A 0.51 0.51 0.0 0 1 165.62 449.74
  C 163.57 450.20 161.28 447.62 159.85 446.40
  Q 158.41 445.18 156.21 444.43
  C 152.11 443.03 148.51 438.52 144.71 437.90
  Q 142.84 437.60 143.86 439.19
  L 147.71 445.21
  Q 148.14 445.89 147.43 446.27
  Q 147.03 446.48 146.25 446.47
  C 130.22 446.20 108.42 444.96 96.59 433.13
  C 84.67 421.21 85.40 404.47 89.46 389.26
  A 0.71 0.70 -88.6 0 1 89.99 388.75
  Q 93.74 387.90 97.76 387.53
  Q 99.88 387.33 100.89 388.32
  C 103.29 390.66 105.90 393.40 108.18 394.23
  Q 108.56 394.37 108.47 393.98
  Z"
/>
</svg>
