<?xml version="1.0" encoding="UTF-8" standalone="no"?>
<!DOCTYPE svg PUBLIC "-//W3C//DTD SVG 1.1//EN" "http://www.w3.org/Graphics/SVG/1.1/DTD/svg11.dtd">
<svg xmlns="http://www.w3.org/2000/svg" version="1.1" viewBox="0.00 0.00 633.00 252.00">
<path fill="#44d62c" d="
  M 54.45 147.82
  C 57.76 151.30 63.40 145.25 65.08 143.06
  Q 66.30 141.47 64.99 140.03
  Q 61.25 135.89 59.51 135.27
  C 53.81 133.24 47.93 131.47 46.02 125.00
  C 44.70 120.50 48.44 113.29 52.13 110.74
  Q 61.64 104.16 72.49 107.21
  Q 81.27 109.68 80.70 119.76
  Q 80.59 121.77 79.26 122.08
  Q 74.55 123.17 69.72 123.00
  Q 69.19 122.98 69.23 122.45
  C 69.52 118.53 70.21 113.93 64.55 113.97
  C 60.78 113.99 58.13 116.46 57.71 120.17
  C 57.07 125.91 63.10 126.88 67.13 128.44
  C 73.53 130.93 78.13 135.36 76.07 142.86
  Q 75.16 146.19 73.62 147.86
  Q 69.69 152.13 66.44 153.95
  C 63.08 155.83 58.61 155.44 54.84 155.81
  C 45.55 156.73 37.61 150.85 40.99 140.63
  Q 41.19 140.04 41.78 139.87
  L 43.41 139.41
  Q 43.92 139.27 44.34 138.95
  Q 47.10 136.84 50.67 137.46
  A 1.47 1.46 -79.4 0 1 51.86 139.21
  Q 50.84 144.04 54.45 147.82
  Z"
/>
<path fill="#04a201" fill-opacity="0.753" d="
  M 105.56 156.95
  L 104.21 157.04
  A 0.30 0.30 0.0 0 1 103.89 156.74
  L 104.04 106.78
  A 0.30 0.30 0.0 0 1 104.23 106.50
  L 105.06 106.19
  A 0.30 0.30 0.0 0 1 105.46 106.47
  L 105.84 156.65
  A 0.30 0.30 0.0 0 1 105.56 156.95
  Z"
/>
<path fill="#44d62c" d="
  M 143.75 121.58
  L 143.71 122.30
  Q 143.54 126.02 147.26 126.05
  Q 165.10 126.18 181.38 126.12
  C 194.67 126.07 198.23 144.82 185.32 149.17
  Q 183.07 149.93 177.60 149.94
  Q 159.89 149.95 140.79 149.93
  A 1.99 1.99 0.0 0 1 138.81 148.06
  L 138.78 147.62
  Q 138.63 144.99 141.27 144.99
  Q 160.53 145.02 179.32 144.97
  Q 183.48 144.96 185.44 143.81
  C 189.19 141.62 189.59 136.56 186.96 133.28
  Q 185.15 131.02 182.50 131.02
  Q 166.30 130.97 150.10 130.99
  Q 145.56 130.99 143.53 130.07
  C 136.81 127.03 137.23 116.70 144.27 114.30
  Q 146.73 113.46 151.00 113.48
  Q 170.72 113.59 191.53 113.80
  A 1.86 1.85 -88.5 0 1 193.37 115.75
  L 193.34 116.30
  Q 193.22 118.77 190.74 118.77
  L 146.67 118.78
  A 2.94 2.92 -88.7 0 0 143.75 121.58
  Z"
/>
<path fill="#44d62c" d="
  M 363.35 131.63
  Q 369.68 138.30 373.97 146.44
  A 2.33 2.33 0.0 0 1 373.06 149.55
  L 372.75 149.73
  A 1.90 1.89 57.9 0 1 370.25 149.15
  C 364.29 140.45 360.45 131.59 348.24 131.24
  Q 336.53 130.90 325.12 130.99
  A 0.73 0.72 -89.6 0 0 324.40 131.71
  L 324.28 147.69
  A 1.98 1.97 -2.1 0 1 322.45 149.64
  L 321.93 149.68
  Q 319.49 149.87 319.49 147.43
  L 319.48 116.23
  A 2.51 2.51 0.0 0 1 321.98 113.72
  Q 341.89 113.63 361.94 113.71
  Q 367.47 113.73 369.86 114.96
  C 376.34 118.31 375.25 127.55 368.64 130.36
  C 367.16 130.99 365.27 130.87 363.53 131.12
  Q 362.94 131.20 363.35 131.63
  Z
  M 324.26 119.86
  L 324.26 125.08
  A 1.07 1.07 0.0 0 0 325.34 126.15
  L 365.82 126.08
  A 3.61 3.55 89.9 0 0 369.36 122.46
  L 369.36 122.32
  A 3.61 3.55 89.9 0 0 365.80 118.72
  L 325.32 118.79
  A 1.07 1.07 0.0 0 0 324.26 119.86
  Z"
/>
<path fill="#44d62c" d="
  M 450.06 131.50
  C 450.13 124.27 453.30 118.11 459.86 115.23
  Q 463.36 113.70 472.38 113.63
  Q 486.50 113.52 503.11 113.78
  A 1.75 1.74 3.2 0 1 504.83 115.69
  L 504.78 116.24
  A 2.89 2.88 2.7 0 1 501.89 118.86
  Q 483.60 118.83 467.25 118.86
  Q 459.49 118.88 456.39 124.66
  Q 454.99 127.27 454.95 132.59
  Q 454.91 139.40 454.89 147.10
  Q 454.89 149.43 452.56 149.56
  L 452.00 149.59
  A 1.79 1.79 0.0 0 1 450.11 147.83
  Q 449.98 139.55 450.06 131.50
  Z"
/>
<path fill="#44d62c" d="
  M 203.75 131.51
  L 203.70 147.29
  Q 203.69 149.76 201.21 149.77
  L 200.71 149.77
  A 1.81 1.81 0.0 0 1 198.89 147.96
  L 198.96 116.25
  A 2.52 2.52 0.0 0 1 201.47 113.74
  Q 222.24 113.63 243.05 113.74
  C 246.92 113.76 249.73 114.27 251.95 117.22
  C 255.97 122.58 252.52 131.02 245.50 131.01
  Q 224.87 130.99 204.29 130.97
  A 0.54 0.54 0.0 0 0 203.75 131.51
  Z
  M 203.74 119.37
  L 203.76 125.61
  A 0.58 0.58 0.0 0 0 204.34 126.19
  L 245.53 126.12
  A 3.56 3.39 89.9 0 0 248.91 122.55
  L 248.91 122.27
  A 3.56 3.39 89.9 0 0 245.51 118.72
  L 204.32 118.79
  A 0.58 0.58 0.0 0 0 203.74 119.37
  Z"
/>
<path fill="#44d62c" d="
  M 260.46 125.17
  C 262.87 119.30 268.97 113.96 275.75 113.84
  Q 290.07 113.57 296.50 113.74
  C 309.16 114.05 317.36 127.22 312.70 138.67
  Q 309.78 145.83 302.86 148.56
  C 297.24 150.77 288.57 149.91 281.74 149.97
  Q 274.95 150.02 271.85 149.04
  C 262.26 146.01 256.46 134.91 260.46 125.17
  Z
  M 308.9373 131.0218
  A 12.30 12.30 0.0 0 0 296.5945 118.7648
  L 276.3946 118.8353
  A 12.30 12.30 0.0 0 0 264.1376 131.1782
  L 264.1427 132.6382
  A 12.30 12.30 0.0 0 0 276.4855 144.8952
  L 296.6854 144.8247
  A 12.30 12.30 0.0 0 0 308.9424 132.4818
  L 308.9373 131.0218
  Z"
/>
<path fill="#44d62c" d="
  M 409.65 119.52
  L 409.62 147.48
  Q 409.62 150.07 407.03 149.91
  L 406.62 149.88
  A 2.02 2.01 1.8 0 1 404.73 147.87
  L 404.71 119.47
  A 0.49 0.48 0.0 0 0 404.22 118.99
  L 381.90 118.90
  A 2.15 2.15 0.0 0 1 379.77 116.91
  L 379.74 116.45
  A 2.57 2.56 -2.1 0 1 382.30 113.70
  L 432.45 113.74
  Q 434.42 113.74 434.50 115.70
  L 434.52 116.10
  Q 434.63 118.95 431.78 118.95
  L 410.23 118.94
  Q 409.65 118.94 409.65 119.52
  Z"
/>
<path fill="#44d62c" d="
  M 535.05 131.04
  Q 528.27 130.91 521.50 130.79
  C 513.08 130.64 509.27 123.01 510.40 115.54
  Q 510.75 113.22 513.03 113.74
  L 513.55 113.86
  A 2.00 2.00 0.0 0 1 515.11 115.76
  C 515.25 120.99 515.47 125.96 522.07 126.00
  Q 537.54 126.08 553.00 126.01
  C 559.62 125.98 560.51 121.59 560.53 115.88
  Q 560.54 113.50 562.91 113.76
  L 563.47 113.83
  A 1.88 1.88 0.0 0 1 565.14 115.55
  C 565.58 121.30 564.42 126.72 559.26 129.51
  C 554.82 131.91 546.69 131.00 541.18 131.01
  A 0.94 0.93 -90.0 0 0 540.25 131.95
  L 540.24 147.38
  A 2.28 2.28 0.0 0 1 537.87 149.66
  L 537.16 149.63
  A 1.83 1.83 0.0 0 1 535.40 147.79
  L 535.43 131.44
  Q 535.43 131.05 535.05 131.04
  Z"
/>
<rect fill="#44d62c" x="439.96" y="114.00" width="4.86" height="35.62" rx="2.38"/>
<rect fill="#44d62c" x="-21.06" y="-2.42" transform="translate(483.80,128.56) rotate(-0.1)" width="42.12" height="4.84" rx="2.38"/>
</svg>
