<?xml version="1.0" encoding="UTF-8" standalone="no"?>
<!DOCTYPE svg PUBLIC "-//W3C//DTD SVG 1.1//EN" "http://www.w3.org/Graphics/SVG/1.1/DTD/svg11.dtd">
<svg xmlns="http://www.w3.org/2000/svg" version="1.1" viewBox="0.00 0.00 360.00 172.00">
<path fill="#fefefe" d="
  M 52.83 98.45
  L 52.61 98.13
  Q 52.31 97.69 52.79 97.45
  Q 54.33 96.68 54.88 95.04
  Q 55.03 94.58 54.72 94.20
  C 52.30 91.22 48.65 90.48 45.84 88.99
  A 1.46 1.45 5.1 0 1 45.12 88.13
  Q 44.85 87.26 44.30 86.54
  Q 44.04 86.20 44.06 85.78
  Q 44.38 78.44 51.45 76.54
  C 56.66 75.13 64.33 77.14 62.48 84.10
  Q 62.35 84.59 61.85 84.64
  L 57.57 85.07
  Q 56.78 85.15 56.86 84.36
  C 57.23 80.48 55.64 79.45 51.99 80.93
  Q 51.20 81.25 50.84 81.93
  C 47.40 88.41 59.29 87.24 60.33 92.84
  C 61.05 96.68 58.25 99.73 55.05 101.54
  Q 53.51 102.41 52.42 101.71
  A 0.12 0.12 0.0 0 0 52.26 101.74
  Q 52.08 101.95 52.12 102.23
  Q 52.16 102.54 51.85 102.61
  Q 51.42 102.71 51.10 102.45
  Q 50.68 102.13 50.19 102.31
  C 45.43 104.12 40.30 101.10 41.06 95.80
  Q 41.26 94.44 42.56 93.97
  L 45.62 92.88
  Q 47.18 92.32 47.10 93.98
  Q 46.93 97.00 49.02 99.17
  Q 49.42 99.57 49.93 99.35
  Q 51.15 98.82 52.47 99.02
  Q 53.31 99.16 52.83 98.45
  Z"
/>
<rect fill="#fefefe" x="75.12" y="76.30" width="1.22" height="27.30" rx="0.34"/>
<path fill="#fefefe" d="
  M 97.00 84.44
  L 96.98 85.18
  Q 96.94 86.93 98.69 86.94
  Q 108.55 87.04 118.26 86.98
  C 123.94 86.94 125.67 95.54 120.88 98.43
  Q 118.90 99.62 114.60 99.70
  Q 105.22 99.88 94.99 99.56
  A 0.95 0.94 8.3 0 1 94.10 98.38
  L 94.22 97.91
  A 1.15 1.14 7.2 0 1 95.33 97.05
  L 117.64 97.02
  Q 121.30 97.01 121.12 93.36
  L 121.07 92.36
  A 2.78 2.78 0.0 0 0 118.27 89.73
  Q 108.62 89.79 99.75 89.64
  C 92.58 89.53 91.98 80.12 99.78 80.03
  Q 110.86 79.90 123.11 80.10
  A 0.86 0.86 0.0 0 1 123.83 81.42
  L 123.57 81.83
  A 2.31 2.30 -73.8 0 1 121.62 82.91
  L 98.56 82.92
  Q 97.03 82.92 97.00 84.44
  Z"
/>
<path fill="#fefefe" d="
  M 130.10 89.68
  Q 129.29 89.66 129.28 90.47
  L 129.19 98.61
  Q 129.18 99.93 127.89 99.61
  L 127.32 99.47
  A 0.62 0.62 0.0 0 1 126.85 98.87
  L 126.87 81.52
  Q 126.87 80.02 128.36 80.02
  Q 140.13 79.97 151.71 80.01
  C 157.95 80.03 158.26 89.52 150.01 89.68
  Q 139.86 89.88 130.10 89.68
  Z
  M 129.23 83.35
  L 129.23 86.51
  A 0.47 0.47 0.0 0 0 129.70 86.98
  L 150.83 86.98
  A 3.12 2.01 0.0 0 0 153.95 84.97
  L 153.95 84.89
  A 3.12 2.01 -0.0 0 0 150.83 82.88
  L 129.70 82.88
  A 0.47 0.47 0.0 0 0 129.23 83.35
  Z"
/>
<path fill="#fefefe" d="
  M 182.35 80.59
  C 189.19 83.25 191.41 91.66 185.89 96.69
  C 181.55 100.65 171.53 100.32 166.47 99.06
  C 157.46 96.82 156.81 83.91 165.59 80.77
  C 168.51 79.73 178.99 79.28 182.35 80.59
  Z
  M 186.1077 89.4669
  A 6.62 6.62 0.0 0 0 179.4531 82.8817
  L 168.5933 82.9385
  A 6.62 6.62 0.0 0 0 162.0080 89.5931
  L 162.0123 90.4131
  A 6.62 6.62 0.0 0 0 168.6669 96.9983
  L 179.5267 96.9415
  A 6.62 6.62 0.0 0 0 186.1120 90.2869
  L 186.1077 89.4669
  Z"
/>
<path fill="#fefefe" d="
  M 216.14 90.23
  L 221.47 97.67
  A 1.00 0.99 58.3 0 1 221.13 99.12
  L 220.74 99.33
  A 1.22 1.22 0.0 0 1 219.13 98.91
  Q 217.62 96.56 215.79 94.01
  Q 212.83 89.89 207.77 89.90
  Q 201.26 89.90 194.95 89.59
  A 0.42 0.42 0.0 0 0 194.51 90.00
  L 194.49 98.30
  Q 194.49 99.58 193.20 99.60
  L 192.94 99.60
  A 0.91 0.90 89.7 0 1 192.03 98.69
  L 192.04 81.27
  A 1.25 1.25 0.0 0 1 193.29 80.02
  Q 204.74 79.97 215.82 80.01
  C 219.64 80.02 221.88 81.70 221.18 85.70
  Q 220.66 88.65 216.38 89.61
  Q 215.79 89.74 216.14 90.23
  Z
  M 194.51 83.50
  L 194.51 86.44
  A 0.56 0.56 0.0 0 0 195.07 87.00
  L 216.52 86.96
  A 2.49 1.98 -0.1 0 0 219.01 84.98
  L 219.01 84.88
  A 2.49 1.98 -0.1 0 0 216.52 82.90
  L 195.07 82.94
  A 0.56 0.56 0.0 0 0 194.51 83.50
  Z"
/>
<path fill="#fefefe" d="
  M 237.41 82.88
  L 225.34 82.97
  A 0.60 0.60 0.0 0 1 224.73 82.36
  L 224.78 80.59
  A 0.60 0.60 0.0 0 1 225.38 80.00
  L 253.39 80.00
  A 0.60 0.60 0.0 0 1 253.99 80.58
  L 254.03 82.35
  A 0.60 0.60 0.0 0 1 253.43 82.97
  L 241.33 82.91
  A 0.60 0.60 0.0 0 0 240.73 83.51
  L 240.74 98.78
  A 0.60 0.60 0.0 0 1 240.30 99.35
  L 238.79 99.78
  A 0.60 0.60 0.0 0 1 238.03 99.21
  L 238.01 83.47
  A 0.60 0.60 0.0 0 0 237.41 82.88
  Z"
/>
<path fill="#fefefe" d="
  M 271.63 82.99
  C 263.11 83.06 265.03 93.16 265.00 98.44
  Q 265.00 99.17 264.28 99.29
  L 263.57 99.40
  Q 262.92 99.51 262.86 98.85
  C 262.20 92.15 261.22 80.09 271.50 80.02
  Q 281.22 79.96 291.10 80.02
  A 0.96 0.96 0.0 0 1 292.04 81.14
  L 291.98 81.53
  Q 291.75 82.92 290.34 82.92
  Q 281.00 82.91 271.63 82.99
  Z"
/>
<path fill="#fefefe" d="
  M 308.74 90.19
  Q 308.73 89.45 308.01 89.55
  C 302.26 90.32 293.89 89.36 295.07 81.13
  Q 295.16 80.52 295.73 80.32
  Q 296.52 80.03 297.19 80.50
  A 1.36 1.36 0.0 0 1 297.76 81.48
  L 298.02 84.46
  Q 298.05 84.82 298.28 85.11
  Q 299.75 86.90 301.63 86.93
  Q 309.56 87.06 317.50 87.03
  Q 320.21 87.01 321.72 84.92
  Q 322.03 84.50 322.06 83.97
  L 322.25 80.90
  A 0.72 0.70 -9.6 0 1 322.71 80.27
  Q 323.70 79.90 324.54 80.66
  A 1.07 1.05 -71.8 0 1 324.87 81.33
  C 325.53 89.26 317.76 90.49 311.88 89.59
  A 0.65 0.65 0.0 0 0 311.14 90.23
  L 311.12 98.33
  Q 311.12 99.53 309.92 99.52
  L 309.42 99.51
  A 0.58 0.58 0.0 0 1 308.84 98.93
  L 308.74 90.19
  Z"
/>
<rect fill="#fefefe" x="257.02" y="80.30" width="2.72" height="19.10" rx="1.32"/>
<path fill="#fefefe" d="
  M 291.89 87.02
  A 0.27 0.27 0.0 0 1 292.16 87.29
  L 292.16 87.61
  A 2.81 2.15 0.0 0 1 289.35 89.76
  L 271.99 89.76
  A 2.81 2.15 0.0 0 1 269.18 87.61
  L 269.18 87.29
  A 0.27 0.27 0.0 0 1 269.45 87.02
  L 291.89 87.02
  Z"
/>
</svg>
