<?xml version="1.0" encoding="UTF-8" standalone="no"?>
<!DOCTYPE svg PUBLIC "-//W3C//DTD SVG 1.1//EN" "http://www.w3.org/Graphics/SVG/1.1/DTD/svg11.dtd">
<svg xmlns="http://www.w3.org/2000/svg" version="1.1" viewBox="0.00 0.00 1290.00 616.00">
<path fill="#ffffff" d="
  M 188.54 352.65
  L 188.07 351.13
  A 0.93 0.93 0.0 0 1 188.30 350.19
  C 191.81 346.71 194.73 345.22 197.38 340.12
  A 0.77 0.76 -48.8 0 0 197.33 339.35
  C 192.74 332.44 184.69 327.85 177.82 325.16
  C 163.37 319.52 154.45 313.91 159.20 296.43
  C 160.13 292.97 162.83 289.63 164.90 286.57
  C 169.11 280.33 174.81 277.43 182.25 275.44
  C 190.49 273.24 199.27 271.27 207.01 274.09
  C 211.31 275.66 215.59 276.73 219.13 279.81
  C 224.58 284.54 225.94 293.96 224.63 300.63
  C 223.76 305.02 207.78 304.53 204.26 304.24
  A 1.25 1.24 -76.7 0 1 203.21 302.53
  C 205.21 297.64 204.00 289.95 198.34 287.75
  Q 196.58 287.07 194.16 287.80
  C 190.97 288.76 184.03 289.69 182.58 292.83
  C 177.55 303.68 180.92 309.36 191.51 313.47
  C 202.23 317.63 213.39 320.96 216.53 333.82
  Q 217.30 336.95 216.42 340.62
  C 213.43 353.18 204.23 362.06 191.59 365.87
  Q 190.75 366.12 189.37 366.15
  C 187.36 366.18 185.59 367.01 183.83 366.95
  C 182.11 366.89 181.18 366.45 179.42 366.93
  C 167.71 370.18 150.47 367.04 147.55 353.23
  Q 145.90 345.45 147.52 340.27
  C 148.77 336.26 160.36 333.77 163.25 333.30
  Q 165.44 332.94 167.83 334.40
  Q 168.22 334.63 168.25 335.08
  Q 168.97 347.60 176.87 357.21
  Q 177.41 357.87 178.00 357.26
  C 180.54 354.63 184.87 354.45 188.20 353.33
  A 0.55 0.54 71.9 0 0 188.54 352.65
  Z"
/>
<path fill="#ffffff" d="
  M 273.19 273.41
  A 0.27 0.27 0.0 0 1 273.46 273.68
  L 273.39 316.27
  A 54.48 1.77 -89.9 0 1 271.53 370.75
  L 270.67 370.75
  A 54.48 1.77 -89.9 0 1 268.99 316.27
  L 269.06 273.68
  A 0.27 0.27 0.0 0 1 269.33 273.41
  L 273.19 273.41
  Z"
/>
<path fill="#ffffff" d="
  M 425.00 297.28
  C 401.00 296.89 377.01 297.01 353.00 297.31
  Q 348.55 297.37 347.75 300.99
  C 346.22 307.94 348.33 311.35 355.75 311.38
  Q 386.62 311.52 417.50 311.60
  C 427.76 311.62 436.35 314.09 441.47 323.54
  C 443.07 326.50 443.92 334.23 443.39 337.88
  C 441.61 350.00 429.79 356.97 418.25 357.13
  Q 387.12 357.59 356.00 357.41
  Q 347.55 357.36 338.84 355.40
  A 1.69 1.68 -3.9 0 1 337.63 354.35
  C 335.73 349.46 339.70 348.36 343.58 348.15
  C 370.29 346.72 397.21 347.66 421.00 347.22
  C 427.33 347.10 433.07 344.11 433.89 337.24
  C 434.32 333.71 433.76 326.88 430.51 324.24
  C 427.45 321.76 422.28 321.08 417.66 321.29
  C 404.38 321.89 388.56 321.60 367.25 321.60
  C 354.19 321.61 340.99 321.48 337.23 306.01
  C 335.13 297.34 343.53 287.75 352.24 287.01
  Q 361.90 286.20 384.49 286.55
  C 402.70 286.83 420.57 286.56 439.75 287.20
  Q 441.99 287.27 443.51 288.38
  Q 443.92 288.68 443.90 289.18
  Q 443.75 292.27 442.76 294.01
  C 440.92 297.22 428.33 297.33 425.00 297.28
  Z"
/>
<path fill="#ffffff" d="
  M 464.48 321.32
  A 0.95 0.95 0.0 0 0 463.58 322.25
  Q 463.18 335.87 462.45 349.53
  C 462.33 351.81 461.87 353.79 461.33 356.01
  A 1.07 1.07 0.0 0 1 460.79 356.69
  Q 458.46 357.87 456.06 356.69
  Q 455.64 356.48 455.62 356.02
  Q 455.32 349.44 454.25 336.75
  C 453.70 330.32 454.72 323.46 454.52 317.09
  Q 454.35 311.32 454.66 305.56
  C 454.96 300.18 454.26 294.17 454.87 288.30
  A 1.42 1.41 -87.5 0 1 456.25 287.03
  Q 496.49 286.39 537.00 286.56
  C 545.39 286.59 552.43 286.34 557.32 294.20
  Q 564.37 305.51 555.31 315.53
  Q 553.30 317.75 551.35 318.43
  C 545.51 320.45 540.21 321.41 533.62 321.44
  Q 502.74 321.56 471.86 321.75
  C 469.67 321.76 466.96 321.18 464.48 321.32
  Z
  M 462.67 300.45
  L 462.67 307.95
  A 3.39 3.39 0.0 0 0 466.06 311.34
  L 541.27 311.34
  A 9.92 6.23 -0.0 0 0 551.19 305.11
  L 551.19 303.29
  A 9.92 6.23 0.0 0 0 541.27 297.06
  L 466.06 297.06
  A 3.39 3.39 0.0 0 0 462.67 300.45
  Z"
/>
<path fill="#ffffff" d="
  M 666.25 296.09
  C 674.63 302.80 679.07 318.06 676.70 328.24
  Q 673.13 343.56 659.26 351.77
  Q 655.64 353.91 652.76 354.57
  C 646.69 355.98 641.06 357.29 634.66 357.27
  C 623.64 357.23 612.51 357.99 601.38 355.87
  Q 592.98 354.27 588.21 351.69
  C 578.44 346.41 572.58 336.27 570.96 325.38
  C 569.62 316.33 572.72 307.42 578.06 300.19
  Q 581.36 295.73 586.62 292.70
  C 592.48 289.32 597.96 287.05 605.04 286.80
  Q 623.51 286.14 641.95 286.72
  Q 647.74 286.91 651.88 288.31
  Q 659.96 291.05 666.25 296.09
  Z
  M 605.60 297.23
  C 598.02 297.44 593.28 298.66 588.17 303.69
  Q 578.97 312.74 580.33 324.44
  C 581.48 334.22 587.88 342.34 597.11 345.77
  Q 601.70 347.47 611.10 347.58
  Q 627.05 347.76 642.99 347.04
  Q 647.37 346.84 652.72 344.48
  C 664.04 339.50 667.82 330.45 666.96 318.49
  C 666.28 309.03 659.34 299.71 649.64 297.75
  Q 647.54 297.33 637.82 297.13
  Q 621.71 296.80 605.60 297.23
  Z"
/>
<path fill="#ffffff" d="
  M 772.71 321.82
  A 0.32 0.31 -44.3 0 0 772.70 322.26
  Q 782.95 333.27 790.82 345.94
  C 793.91 350.93 795.47 353.36 789.39 356.82
  Q 788.28 357.46 787.47 356.49
  C 779.32 346.70 773.51 336.46 763.61 327.89
  C 758.18 323.19 753.35 321.95 745.70 321.79
  Q 726.97 321.41 708.25 321.73
  Q 703.31 321.82 698.61 320.89
  A 1.26 1.26 0.0 0 0 697.11 322.12
  Q 697.09 328.34 696.82 334.54
  C 696.64 338.37 695.90 344.04 695.90 348.88
  C 695.90 351.04 695.40 352.93 694.91 354.97
  Q 694.78 355.55 694.22 355.78
  L 691.86 356.76
  Q 691.34 356.98 690.92 356.59
  Q 689.42 355.19 689.32 353.07
  Q 688.78 341.91 688.21 330.75
  C 687.54 317.75 688.82 303.98 688.52 291.01
  C 688.46 288.28 689.41 287.08 692.24 287.04
  Q 729.00 286.47 765.75 286.53
  C 770.93 286.54 779.40 286.27 784.12 288.18
  C 790.62 290.80 793.88 297.17 793.46 304.05
  C 793.17 308.59 790.89 314.89 786.68 317.46
  Q 784.12 319.02 777.49 320.35
  C 775.90 320.67 774.14 320.44 772.71 321.82
  Z
  M 696.39 300.60
  L 696.39 307.98
  A 3.46 3.46 0.0 0 0 699.85 311.44
  L 775.42 311.44
  A 9.31 6.03 0.0 0 0 784.73 305.41
  L 784.73 303.17
  A 9.31 6.03 -0.0 0 0 775.42 297.14
  L 699.85 297.14
  A 3.46 3.46 0.0 0 0 696.39 300.60
  Z"
/>
<path fill="#ffffff" d="
  M 862.71 297.81
  Q 862.55 298.17 862.56 298.75
  Q 862.92 321.12 862.63 343.50
  Q 862.59 347.10 861.99 353.08
  Q 861.59 357.09 857.56 357.03
  L 856.53 357.01
  A 3.04 3.04 0.0 0 1 853.53 354.05
  C 853.32 346.52 852.87 338.78 852.87 331.40
  C 852.88 320.27 853.36 308.94 852.78 297.83
  A 1.07 1.06 -2.4 0 0 851.67 296.82
  Q 835.00 297.38 818.21 297.33
  C 814.76 297.31 810.16 296.93 807.49 296.09
  C 804.34 295.11 805.25 289.70 806.86 287.63
  A 1.64 1.62 18.0 0 1 808.10 287.01
  Q 855.52 286.00 902.75 286.93
  Q 905.63 286.98 908.50 287.29
  C 911.59 287.63 910.54 291.96 910.43 294.17
  A 2.27 2.26 88.1 0 1 908.43 296.32
  C 893.63 298.01 878.41 297.05 863.56 297.26
  Q 862.96 297.27 862.71 297.81
  Z"
/>
<path fill="#ffffff" d="
  M 1030.25 297.30
  C 1010.20 297.16 988.53 296.56 970.00 297.21
  C 961.78 297.50 954.40 303.95 951.80 310.87
  Q 950.42 314.54 950.05 325.81
  Q 949.65 338.02 948.65 350.20
  C 948.30 354.51 948.35 356.04 943.47 355.88
  A 1.78 1.77 86.1 0 1 941.77 354.39
  C 940.61 347.21 941.39 340.39 941.11 333.15
  C 940.72 323.00 940.28 310.65 945.75 301.80
  C 951.30 292.81 961.85 286.89 972.50 286.76
  Q 1006.75 286.36 1041.00 287.03
  C 1043.60 287.08 1046.96 286.75 1046.93 290.00
  C 1046.92 292.61 1047.04 295.45 1043.62 296.10
  Q 1037.00 297.34 1030.25 297.30
  Z"
/>
<path fill="#ffffff" d="
  M 1115.10 322.71
  C 1114.64 328.95 1114.95 335.14 1114.11 341.40
  Q 1113.41 346.56 1113.06 351.75
  Q 1112.89 354.26 1111.88 356.37
  A 0.98 0.98 0.0 0 1 1110.66 356.86
  Q 1108.29 355.97 1108.46 353.25
  Q 1108.63 350.38 1107.73 343.23
  C 1106.83 336.01 1106.83 329.40 1106.73 322.43
  A 1.15 1.14 3.2 0 0 1105.72 321.31
  Q 1103.81 321.09 1101.76 321.27
  C 1091.06 322.19 1082.83 321.13 1072.90 318.75
  Q 1069.42 317.92 1067.11 316.17
  Q 1054.19 306.42 1057.91 289.26
  Q 1058.29 287.48 1060.73 287.25
  Q 1065.66 286.79 1066.46 291.49
  C 1067.37 296.84 1067.02 304.70 1072.06 308.03
  Q 1076.83 311.18 1081.75 311.27
  Q 1098.65 311.58 1138.25 311.25
  C 1146.41 311.18 1153.95 307.41 1154.30 298.51
  Q 1154.52 293.13 1155.39 289.24
  C 1156.09 286.09 1161.23 287.13 1162.75 288.75
  Q 1164.06 290.13 1164.22 293.06
  C 1164.71 302.02 1160.67 311.70 1152.98 316.71
  C 1149.38 319.06 1141.31 321.32 1136.69 321.59
  Q 1126.80 322.19 1116.64 321.39
  A 1.43 1.42 -85.4 0 0 1115.10 322.71
  Z"
/>
<path fill="#ffffff" d="
  M 924.25 287.61
  C 926.04 287.73 929.35 288.26 929.69 290.60
  Q 930.81 298.26 930.90 306.00
  Q 931.15 328.19 930.45 353.02
  A 3.34 3.34 0.0 0 1 926.90 356.27
  L 925.94 356.21
  Q 921.89 355.95 921.80 351.90
  C 921.63 344.64 921.00 336.94 920.98 330.01
  Q 920.96 312.31 921.23 294.63
  Q 921.28 291.63 922.14 289.04
  A 2.09 2.08 10.8 0 1 924.25 287.61
  Z"
/>
<path fill="#ffffff" d="
  M 1043.75 312.33
  C 1048.49 313.05 1047.31 318.06 1044.42 319.64
  Q 1041.19 321.40 1037.50 321.45
  Q 1007.56 321.79 977.62 321.59
  C 973.83 321.57 967.24 320.95 965.01 317.29
  C 963.72 315.19 966.15 312.58 968.01 311.89
  Q 969.07 311.49 971.54 311.49
  Q 1001.39 311.48 1031.25 311.41
  Q 1037.54 311.39 1043.75 312.33
  Z"
/>
<path fill="#ffffff" d="
  M 483.1183 390.0893
  A 10.46 10.46 0.0 0 1 472.6949 400.5857
  L 470.2949 400.5941
  A 10.46 10.46 0.0 0 1 459.7985 390.1707
  L 459.7817 385.3507
  A 10.46 10.46 0.0 0 1 470.2051 374.8543
  L 472.6051 374.8459
  A 10.46 10.46 0.0 0 1 483.1015 385.2693
  L 483.1183 390.0893
  Z
  M 471.4244 396.8400
  A 8.94 6.85 90.1 0 0 478.2900 387.9120
  A 8.94 6.85 90.1 0 0 471.4556 378.9600
  A 8.94 6.85 90.1 0 0 464.5900 387.8880
  A 8.94 6.85 90.1 0 0 471.4244 396.8400
  Z"
/>
<path fill="#ffffff" d="
  M 822.73 397.93
  C 818.86 402.54 809.47 400.93 806.58 395.90
  C 802.22 388.31 804.40 376.44 814.59 374.91
  C 819.97 374.11 826.23 376.30 827.19 382.46
  A 0.49 0.49 0.0 0 1 826.70 383.03
  L 823.05 383.00
  A 0.92 0.90 76.7 0 1 822.26 382.50
  Q 820.02 378.03 815.74 379.02
  C 809.87 380.38 808.86 386.87 810.37 391.73
  C 812.30 397.97 819.90 397.96 822.87 392.34
  A 0.95 0.95 0.0 0 0 822.03 390.95
  L 818.08 390.95
  A 0.87 0.87 0.0 0 1 817.21 390.08
  L 817.24 387.77
  A 0.88 0.87 -0.3 0 1 818.11 386.90
  L 826.62 386.78
  A 0.59 0.59 0.0 0 1 827.22 387.37
  L 827.25 399.45
  A 0.82 0.80 -4.0 0 1 826.53 400.26
  Q 824.24 400.52 823.86 398.24
  A 0.65 0.64 60.3 0 0 822.73 397.93
  Z"
/>
<path fill="#ffffff" d="
  M 855.1741 390.0896
  A 10.49 10.49 0.0 0 1 844.7025 400.5979
  L 842.3225 400.6021
  A 10.49 10.49 0.0 0 1 831.8142 390.1304
  L 831.8059 385.3704
  A 10.49 10.49 0.0 0 1 842.2775 374.8621
  L 844.6575 374.8579
  A 10.49 10.49 0.0 0 1 855.1658 385.3296
  L 855.1741 390.0896
  Z
  M 843.4900 396.8300
  A 8.94 6.84 90.0 0 0 850.3300 387.8900
  A 8.94 6.84 90.0 0 0 843.4900 378.9500
  A 8.94 6.84 90.0 0 0 836.6500 387.8900
  A 8.94 6.84 90.0 0 0 843.4900 396.8300
  Z"
/>
<path fill="#ffffff" d="
  M 932.3161 389.9783
  A 10.53 10.53 0.0 0 1 921.8598 400.5815
  L 919.5199 400.5979
  A 10.53 10.53 0.0 0 1 908.9166 390.1416
  L 908.8839 385.4617
  A 10.53 10.53 0.0 0 1 919.3402 374.8585
  L 921.6801 374.8421
  A 10.53 10.53 0.0 0 1 932.2834 385.2984
  L 932.3161 389.9783
  Z
  M 920.5900 396.8500
  A 8.96 6.83 90.0 0 0 927.4200 387.8900
  A 8.96 6.83 90.0 0 0 920.5900 378.9300
  A 8.96 6.83 90.0 0 0 913.7600 387.8900
  A 8.96 6.83 90.0 0 0 920.5900 396.8500
  Z"
/>
<path fill="#ffffff" d="
  M 343.01 391.30
  A 0.69 0.69 0.0 0 0 342.29 392.00
  L 342.37 399.57
  Q 342.38 400.02 341.93 400.02
  L 337.80 400.03
  Q 337.32 400.03 337.32 399.55
  L 337.34 376.01
  A 0.59 0.58 89.5 0 1 337.91 375.42
  C 345.09 375.23 356.81 373.04 356.00 384.52
  C 355.46 392.08 348.46 391.49 343.01 391.30
  Z
  M 342.30 380.55
  L 342.36 386.13
  A 1.00 1.00 0.0 0 0 343.38 387.12
  L 347.41 387.07
  A 3.63 3.47 -0.7 0 0 350.99 383.56
  L 350.99 382.92
  A 3.63 3.47 -0.7 0 0 347.31 379.49
  L 343.28 379.54
  A 1.00 1.00 0.0 0 0 342.30 380.55
  Z"
/>
<path fill="#ffffff" d="
  M 377.67 396.48
  L 377.78 399.35
  A 0.65 0.65 0.0 0 1 377.13 400.02
  L 361.03 400.03
  A 0.65 0.65 0.0 0 1 360.38 399.38
  L 360.38 376.01
  A 0.65 0.65 0.0 0 1 361.04 375.36
  L 364.87 375.43
  A 0.65 0.65 0.0 0 1 365.51 376.08
  L 365.51 395.29
  A 0.65 0.65 0.0 0 0 366.17 395.94
  L 377.02 395.86
  A 0.65 0.65 0.0 0 1 377.67 396.48
  Z"
/>
<path fill="#ffffff" d="
  M 386.62 395.61
  L 385.50 399.63
  A 0.52 0.52 0.0 0 1 385.00 400.01
  L 380.55 400.03
  A 0.52 0.52 0.0 0 1 380.06 399.33
  L 388.45 375.75
  A 0.52 0.52 0.0 0 1 388.93 375.41
  L 394.14 375.38
  A 0.52 0.52 0.0 0 1 394.63 375.73
  L 402.93 399.33
  A 0.52 0.52 0.0 0 1 402.44 400.02
  L 397.81 399.99
  A 0.52 0.52 0.0 0 1 397.31 399.59
  L 396.34 395.55
  A 0.52 0.52 0.0 0 0 395.83 395.15
  L 387.11 395.23
  A 0.52 0.52 0.0 0 0 386.62 395.61
  Z
  M 388.36 390.29
  A 0.48 0.48 0.0 0 0 388.81 390.93
  L 393.93 391.03
  A 0.48 0.48 0.0 0 0 394.39 390.41
  L 391.99 382.44
  A 0.48 0.48 0.0 0 0 391.07 382.42
  L 388.36 390.29
  Z"
/>
<path fill="#ffffff" d="
  M 421.94 391.25
  L 421.85 376.44
  Q 421.85 375.48 422.81 375.45
  L 425.52 375.35
  A 0.92 0.92 0.0 0 1 426.47 376.27
  L 426.44 399.57
  Q 426.44 400.09 425.92 400.08
  L 421.83 399.94
  A 1.15 1.14 75.9 0 1 420.87 399.36
  L 412.30 384.20
  Q 411.24 382.34 411.25 384.48
  L 411.30 399.66
  Q 411.30 399.99 410.97 399.99
  L 406.95 400.05
  Q 406.60 400.05 406.60 399.70
  L 406.59 376.05
  Q 406.59 375.52 407.11 375.44
  Q 409.40 375.08 411.65 375.63
  Q 412.14 375.75 412.38 376.19
  L 421.05 391.49
  Q 421.95 393.07 421.94 391.25
  Z"
/>
<path fill="#ffffff" d="
  M 446.98 385.48
  L 450.94 376.68
  Q 451.54 375.33 453.02 375.36
  L 455.81 375.41
  Q 457.38 375.44 456.63 376.82
  Q 453.64 382.33 450.72 387.88
  C 448.68 391.76 448.80 395.15 449.20 399.24
  Q 449.28 400.02 448.50 400.02
  L 444.52 400.01
  Q 443.77 400.00 443.84 399.26
  C 444.17 395.27 444.48 391.99 442.51 388.31
  Q 439.42 382.49 436.03 376.66
  Q 435.32 375.44 436.73 375.42
  L 439.94 375.37
  Q 441.46 375.34 442.11 376.72
  L 446.26 385.49
  A 0.40 0.39 -45.4 0 0 446.98 385.48
  Z"
/>
<path fill="#ffffff" d="
  M 497.46 396.56
  L 498.54 396.57
  A 3.72 3.72 0.0 0 0 502.31 392.87
  L 502.38 376.16
  A 0.73 0.72 -0.8 0 1 503.09 375.44
  L 506.53 375.36
  Q 507.31 375.34 507.33 376.11
  Q 507.75 388.36 507.28 393.74
  C 506.43 403.72 487.88 403.87 487.70 392.25
  Q 487.57 383.94 487.62 376.19
  A 0.88 0.88 0.0 0 1 488.54 375.32
  L 491.95 375.46
  Q 492.91 375.50 492.90 376.45
  L 492.88 391.92
  Q 492.87 396.51 497.46 396.56
  Z"
/>
<path fill="#ffffff" d="
  M 517.75 391.58
  L 517.77 399.50
  A 0.53 0.53 0.0 0 1 517.25 400.03
  L 513.19 400.05
  Q 512.83 400.05 512.83 399.69
  L 512.85 375.77
  A 0.35 0.35 0.0 0 1 513.20 375.42
  Q 519.28 375.29 525.49 375.36
  C 532.44 375.44 535.75 383.74 530.29 387.79
  A 0.56 0.56 0.0 0 0 530.18 388.59
  C 533.29 392.64 531.36 395.21 532.98 399.32
  Q 533.26 400.03 532.49 400.03
  L 528.29 400.02
  A 0.94 0.93 88.0 0 1 527.37 399.16
  L 526.83 392.10
  A 1.54 1.54 0.0 0 0 525.35 390.68
  L 518.92 390.45
  Q 517.74 390.41 517.75 391.58
  Z
  M 517.76 380.19
  L 517.76 385.89
  A 0.67 0.67 0.0 0 0 518.43 386.56
  L 523.85 386.56
  A 4.01 3.07 0.0 0 0 527.86 383.49
  L 527.86 382.59
  A 4.01 3.07 -0.0 0 0 523.85 379.52
  L 518.43 379.52
  A 0.67 0.67 0.0 0 0 517.76 380.19
  Z"
/>
<path fill="#ffffff" d="
  M 549.25 391.29
  A 0.66 0.66 0.0 0 0 548.55 391.97
  L 548.69 399.53
  Q 548.70 400.02 548.21 400.02
  L 544.21 400.04
  A 0.58 0.57 89.5 0 1 543.63 399.46
  L 543.64 375.89
  A 0.51 0.51 0.0 0 1 544.15 375.38
  Q 549.23 375.41 554.26 375.47
  Q 562.82 375.57 562.35 384.26
  C 561.93 391.96 554.81 391.58 549.25 391.29
  Z
  M 548.65 380.04
  L 548.63 386.62
  A 0.48 0.48 0.0 0 0 549.11 387.10
  L 553.59 387.11
  A 3.64 3.37 0.1 0 0 557.24 383.75
  L 557.24 382.95
  A 3.64 3.37 0.1 0 0 553.61 379.57
  L 549.13 379.56
  A 0.48 0.48 0.0 0 0 548.65 380.04
  Z"
/>
<path fill="#ffffff" d="
  M 583.94 396.47
  L 584.00 399.36
  A 0.65 0.65 0.0 0 1 583.36 400.02
  L 567.32 400.04
  A 0.65 0.65 0.0 0 1 566.67 399.39
  L 566.66 375.99
  A 0.65 0.65 0.0 0 1 567.32 375.34
  L 571.15 375.42
  A 0.65 0.65 0.0 0 1 571.79 376.07
  L 571.78 395.34
  A 0.65 0.65 0.0 0 0 572.44 395.99
  L 583.28 395.84
  A 0.65 0.65 0.0 0 1 583.94 396.47
  Z"
/>
<path fill="#ffffff" d="
  M 592.91 395.62
  L 591.74 399.66
  A 0.52 0.52 0.0 0 1 591.24 400.03
  L 586.81 400.04
  A 0.52 0.52 0.0 0 1 586.32 399.34
  L 594.70 375.77
  A 0.52 0.52 0.0 0 1 595.18 375.43
  L 600.39 375.36
  A 0.52 0.52 0.0 0 1 600.88 375.71
  L 609.19 399.33
  A 0.52 0.52 0.0 0 1 608.70 400.03
  L 604.09 400.00
  A 0.52 0.52 0.0 0 1 603.58 399.61
  L 602.58 395.51
  A 0.52 0.52 0.0 0 0 602.07 395.12
  L 593.40 395.24
  A 0.52 0.52 0.0 0 0 592.91 395.62
  Z
  M 594.55 390.49
  A 0.33 0.33 0.0 0 0 594.85 390.92
  L 600.39 391.04
  A 0.33 0.33 0.0 0 0 600.71 390.62
  L 598.12 382.02
  A 0.33 0.33 0.0 0 0 597.49 382.01
  L 594.55 390.49
  Z"
/>
<path fill="#ffffff" d="
  M 622.42 385.56
  L 626.44 376.69
  Q 627.05 375.34 628.53 375.36
  L 631.32 375.39
  Q 632.86 375.40 632.13 376.76
  Q 629.27 382.13 626.35 387.57
  C 624.19 391.59 624.12 395.02 624.69 399.26
  Q 624.79 400.03 624.02 400.02
  L 619.99 400.01
  A 0.73 0.72 3.8 0 1 619.27 399.19
  C 619.86 394.73 619.73 391.41 617.44 387.26
  Q 614.38 381.70 611.41 376.39
  Q 610.85 375.38 612.01 375.38
  L 615.74 375.39
  Q 616.96 375.39 617.48 376.49
  L 621.77 385.56
  A 0.36 0.36 0.0 0 0 622.42 385.56
  Z"
/>
<path fill="#ffffff" d="
  M 661.58 391.78
  Q 661.92 393.39 662.28 391.79
  L 665.78 376.31
  Q 665.99 375.37 666.95 375.38
  L 670.45 375.42
  A 0.63 0.62 8.1 0 1 671.05 376.21
  L 664.54 399.42
  Q 664.36 400.05 663.71 400.04
  L 659.82 399.98
  Q 659.14 399.97 659.01 399.32
  L 655.86 383.26
  Q 655.45 381.21 655.03 383.26
  L 651.66 399.46
  Q 651.55 399.98 651.02 399.98
  L 647.34 400.02
  Q 646.59 400.03 646.38 399.31
  L 639.84 376.24
  A 0.68 0.67 -7.4 0 1 640.50 375.39
  L 644.28 375.44
  Q 645.21 375.45 645.40 376.35
  L 648.78 391.75
  Q 649.19 393.62 649.54 391.74
  L 652.47 376.19
  Q 652.57 375.64 653.12 375.55
  Q 655.44 375.16 657.76 375.54
  A 0.67 0.66 88.7 0 1 658.31 376.07
  L 661.58 391.78
  Z"
/>
<path fill="#ffffff" d="
  M 679.73 389.97
  L 679.77 395.36
  A 0.63 0.63 0.0 0 0 680.40 395.99
  L 692.57 395.98
  A 0.63 0.63 0.0 0 1 693.20 396.59
  L 693.27 399.35
  A 0.63 0.63 0.0 0 1 692.64 400.00
  L 675.37 400.06
  A 0.63 0.63 0.0 0 1 674.74 399.43
  L 674.76 375.97
  A 0.63 0.63 0.0 0 1 675.40 375.34
  L 691.89 375.61
  A 0.63 0.63 0.0 0 1 692.50 376.19
  L 692.72 379.03
  A 0.63 0.63 0.0 0 1 692.09 379.71
  L 680.39 379.75
  A 0.63 0.63 0.0 0 0 679.77 380.37
  L 679.73 384.50
  A 0.63 0.63 0.0 0 0 680.37 385.14
  L 691.51 385.12
  A 0.63 0.63 0.0 0 1 692.14 385.78
  L 692.00 388.81
  A 0.63 0.63 0.0 0 1 691.36 389.41
  L 680.37 389.33
  A 0.63 0.63 0.0 0 0 679.73 389.97
  Z"
/>
<path fill="#ffffff" d="
  M 708.49 389.57
  L 708.51 399.54
  A 0.48 0.48 0.0 0 1 708.03 400.02
  L 703.95 400.03
  A 0.48 0.48 0.0 0 1 703.47 399.55
  L 703.43 375.63
  A 0.48 0.48 0.0 0 1 703.95 375.15
  L 707.78 375.48
  A 0.48 0.48 0.0 0 1 708.22 375.94
  L 708.57 384.48
  A 0.48 0.48 0.0 0 0 709.05 384.94
  L 717.80 384.95
  A 0.48 0.48 0.0 0 0 718.28 384.47
  L 718.30 375.88
  A 0.48 0.48 0.0 0 1 718.77 375.40
  L 722.72 375.31
  A 0.48 0.48 0.0 0 1 723.21 375.79
  L 723.23 399.57
  A 0.48 0.48 0.0 0 1 722.74 400.05
  L 718.75 400.00
  A 0.48 0.48 0.0 0 1 718.28 399.52
  L 718.31 389.56
  A 0.48 0.48 0.0 0 0 717.83 389.08
  L 708.97 389.09
  A 0.48 0.48 0.0 0 0 708.49 389.57
  Z"
/>
<path fill="#ffffff" d="
  M 733.62 395.56
  L 732.40 399.66
  A 0.50 0.50 0.0 0 1 731.92 400.02
  L 727.50 400.03
  A 0.50 0.50 0.0 0 1 727.03 399.36
  L 735.41 375.71
  A 0.50 0.50 0.0 0 1 735.89 375.37
  L 741.13 375.41
  A 0.50 0.50 0.0 0 1 741.60 375.74
  L 749.90 399.37
  A 0.50 0.50 0.0 0 1 749.43 400.03
  L 744.75 399.98
  A 0.50 0.50 0.0 0 1 744.28 399.61
  L 743.24 395.51
  A 0.50 0.50 0.0 0 0 742.75 395.13
  L 734.10 395.21
  A 0.50 0.50 0.0 0 0 733.62 395.56
  Z
  M 735.28 390.42
  A 0.38 0.38 0.0 0 0 735.64 390.93
  L 741.07 391.00
  A 0.38 0.38 0.0 0 0 741.44 390.51
  L 738.84 382.19
  A 0.38 0.38 0.0 0 0 738.12 382.18
  L 735.28 390.42
  Z"
/>
<path fill="#ffffff" d="
  M 768.43 375.31
  L 773.05 375.46
  A 0.34 0.34 0.0 0 1 773.36 375.91
  L 765.24 399.79
  A 0.34 0.34 0.0 0 1 764.92 400.02
  L 760.30 399.99
  A 0.34 0.34 0.0 0 1 759.98 399.76
  L 751.91 375.83
  A 0.34 0.34 0.0 0 1 752.24 375.38
  L 757.05 375.43
  A 0.34 0.34 0.0 0 1 757.37 375.67
  L 762.38 393.23
  A 0.34 0.34 0.0 0 0 763.04 393.23
  L 768.09 375.56
  A 0.34 0.34 0.0 0 1 768.43 375.31
  Z"
/>
<path fill="#ffffff" d="
  M 781.89 380.21
  L 781.93 384.71
  A 0.49 0.49 0.0 0 0 782.43 385.20
  L 793.32 385.00
  A 0.49 0.49 0.0 0 1 793.82 385.47
  L 793.94 388.83
  A 0.49 0.49 0.0 0 1 793.45 389.34
  L 782.35 389.36
  A 0.49 0.49 0.0 0 0 781.86 389.86
  L 781.96 395.52
  A 0.49 0.49 0.0 0 0 782.46 396.01
  L 794.88 395.88
  A 0.49 0.49 0.0 0 1 795.37 396.35
  L 795.54 399.50
  A 0.49 0.49 0.0 0 1 795.05 400.01
  L 777.47 400.05
  A 0.49 0.49 0.0 0 1 776.98 399.56
  L 776.98 375.87
  A 0.49 0.49 0.0 0 1 777.47 375.38
  L 794.47 375.44
  A 0.49 0.49 0.0 0 1 794.96 375.93
  L 794.95 379.34
  A 0.49 0.49 0.0 0 1 794.46 379.83
  L 782.39 379.71
  A 0.49 0.49 0.0 0 0 781.89 380.21
  Z"
/>
<path fill="#ffffff" d="
  M 870.19 380.33
  L 870.22 399.43
  A 0.61 0.61 0.0 0 1 869.60 400.04
  L 865.56 399.94
  A 0.61 0.61 0.0 0 1 864.96 399.33
  L 865.00 380.20
  A 0.61 0.61 0.0 0 0 864.37 379.59
  L 858.41 379.81
  A 0.61 0.61 0.0 0 1 857.78 379.27
  L 857.38 376.04
  A 0.61 0.61 0.0 0 1 857.99 375.35
  L 876.86 375.43
  A 0.61 0.61 0.0 0 1 877.46 376.07
  L 877.28 379.18
  A 0.61 0.61 0.0 0 1 876.67 379.76
  L 870.81 379.71
  A 0.61 0.61 0.0 0 0 870.19 380.33
  Z"
/>
<path fill="#ffffff" d="
  M 896.08 385.54
  L 900.12 376.65
  Q 900.71 375.36 902.13 375.38
  L 905.22 375.43
  Q 906.54 375.45 905.91 376.61
  Q 902.50 382.85 898.94 389.71
  C 897.70 392.09 898.19 396.73 898.32 399.20
  Q 898.36 400.02 897.53 400.02
  L 893.73 400.00
  A 0.81 0.81 0.0 0 1 892.93 399.09
  C 893.47 394.75 893.41 391.37 891.17 387.32
  Q 888.06 381.71 885.10 376.46
  Q 884.50 375.40 885.72 375.40
  L 889.44 375.40
  Q 890.63 375.40 891.14 376.48
  L 895.44 385.54
  A 0.36 0.35 44.6 0 0 896.08 385.54
  Z"
/>
<path fill="#ffffff" d="
  M 941.91 388.99
  C 941.88 393.19 942.84 398.36 948.72 396.29
  C 951.11 395.45 951.59 392.74 951.57 390.50
  Q 951.52 383.07 951.49 376.24
  A 0.90 0.90 0.0 0 1 952.38 375.34
  L 955.70 375.28
  Q 956.50 375.26 956.52 376.06
  Q 956.87 387.64 956.52 393.49
  C 955.90 403.58 937.57 403.88 936.86 392.87
  Q 936.58 388.52 936.83 376.06
  A 0.75 0.75 0.0 0 1 937.60 375.32
  L 941.32 375.42
  Q 942.08 375.44 942.06 376.20
  Q 941.96 382.38 941.91 388.99
  Z"
/>
<path fill="#ffffff" d="
  M 966.89 392.39
  L 966.95 399.81
  Q 966.95 400.06 966.70 400.06
  L 962.35 400.08
  A 0.36 0.35 0.0 0 1 961.99 399.73
  L 962.00 375.76
  Q 962.00 375.42 962.34 375.41
  Q 968.98 375.26 975.75 375.50
  C 982.18 375.72 984.13 383.87 979.34 387.94
  Q 978.93 388.29 979.28 388.69
  C 980.33 389.93 981.12 390.72 981.24 392.46
  Q 981.44 395.38 982.05 399.74
  Q 982.09 400.04 981.79 400.03
  L 976.93 400.01
  Q 976.61 400.01 976.59 399.70
  L 976.07 393.04
  A 2.62 2.60 -1.2 0 0 973.55 390.64
  L 968.86 390.47
  Q 966.87 390.40 966.89 392.39
  Z
  M 966.87 380.22
  L 966.89 385.90
  A 0.67 0.67 0.0 0 0 967.56 386.57
  L 973.41 386.54
  A 3.58 3.29 -0.2 0 0 976.98 383.24
  L 976.98 382.80
  A 3.58 3.29 -0.2 0 0 973.39 379.52
  L 967.54 379.55
  A 0.67 0.67 0.0 0 0 966.87 380.22
  Z"
/>
<path fill="#ffffff" d="
  M 999.60 392.00
  Q 999.98 393.73 1000.30 391.99
  L 1003.28 376.20
  A 0.80 0.80 0.0 0 1 1003.92 375.56
  Q 1006.23 375.15 1008.54 375.58
  Q 1009.04 375.67 1009.14 376.17
  L 1012.32 391.10
  Q 1012.74 393.08 1013.20 391.11
  L 1016.58 376.51
  Q 1016.84 375.38 1018.00 375.39
  L 1020.96 375.41
  A 0.84 0.83 8.2 0 1 1021.76 376.47
  L 1015.35 399.52
  Q 1015.21 400.04 1014.67 400.03
  L 1010.57 399.98
  A 0.80 0.80 0.0 0 1 1009.80 399.33
  L 1006.59 382.52
  Q 1006.31 381.07 1006.01 382.51
  L 1002.46 399.52
  Q 1002.35 400.03 1001.83 400.02
  L 997.87 399.98
  Q 997.40 399.97 997.27 399.52
  L 990.66 376.23
  A 0.64 0.63 82.1 0 1 991.27 375.42
  L 995.09 375.40
  A 1.19 1.17 83.9 0 1 996.24 376.34
  L 999.60 392.00
  Z"
/>
<path fill="#ffffff" d="
  M 1039.63 395.16
  L 1030.90 395.22
  A 0.57 0.57 0.0 0 0 1030.35 395.65
  L 1029.38 399.59
  A 0.57 0.57 0.0 0 1 1028.82 400.02
  L 1024.45 400.02
  A 0.57 0.57 0.0 0 1 1023.91 399.26
  L 1032.26 375.76
  A 0.57 0.57 0.0 0 1 1032.81 375.38
  L 1037.96 375.45
  A 0.57 0.57 0.0 0 1 1038.49 375.83
  L 1046.73 399.27
  A 0.57 0.57 0.0 0 1 1046.19 400.03
  L 1041.71 399.99
  A 0.57 0.57 0.0 0 1 1041.16 399.56
  L 1040.19 395.60
  A 0.57 0.57 0.0 0 0 1039.63 395.16
  Z
  M 1032.17 390.31
  A 0.48 0.48 0.0 0 0 1032.62 390.95
  L 1037.80 391.01
  A 0.48 0.48 0.0 0 0 1038.26 390.39
  L 1035.77 382.50
  A 0.48 0.48 0.0 0 0 1034.86 382.49
  L 1032.17 390.31
  Z"
/>
<path fill="#ffffff" d="
  M 1059.98 385.48
  L 1063.94 376.75
  Q 1064.58 375.36 1066.11 375.37
  L 1068.81 375.40
  Q 1070.44 375.42 1069.66 376.85
  Q 1066.60 382.44 1063.44 388.46
  C 1061.60 391.98 1061.91 395.60 1062.22 399.29
  Q 1062.29 400.02 1061.55 400.02
  L 1057.50 400.00
  A 0.65 0.65 0.0 0 1 1056.86 399.30
  C 1057.14 395.36 1057.50 392.00 1055.57 388.37
  Q 1052.35 382.30 1048.94 376.45
  Q 1048.34 375.43 1049.52 375.42
  L 1053.40 375.39
  Q 1054.51 375.39 1054.98 376.39
  L 1059.26 385.49
  A 0.40 0.40 0.0 0 0 1059.98 385.48
  Z"
/>
</svg>
